<svg width="20" height="20" viewBox="0 0 20 20" fill="none" xmlns="http://www.w3.org/2000/svg">
<g clip-path="url(#clip0_461_104059)">
<path d="M10.133 5.26663C11.1247 5.26663 11.933 4.45829 11.933 3.46663C11.933 2.47496 11.1247 1.66663 10.133 1.66663C9.14134 1.66663 8.33301 2.47496 8.33301 3.46663C8.33301 4.45829 9.14134 5.26663 10.133 5.26663Z" fill="#9FA2AA"/>
<path d="M10.133 11.3665C11.1247 11.3665 11.933 10.5581 11.933 9.56648C11.933 8.57481 11.1247 7.76648 10.133 7.76648C9.14134 7.76648 8.33301 8.57481 8.33301 9.56648C8.33301 10.5581 9.13301 11.3665 10.133 11.3665Z" fill="#9FA2AA"/>
<path d="M10.133 17.4663C11.1247 17.4663 11.933 16.658 11.933 15.6663C11.933 14.6747 11.1247 13.8663 10.133 13.8663C9.14134 13.8663 8.33301 14.6747 8.33301 15.6663C8.33301 16.658 9.14134 17.4663 10.133 17.4663Z" fill="#9FA2AA"/>
</g>
<defs>
<clipPath id="clip0_461_104059">
<rect width="20" height="20" fill="white"/>
</clipPath>
</defs>
</svg>
