<svg width="16" height="16" viewBox="0 0 16 16" fill="none" xmlns="http://www.w3.org/2000/svg">
<path opacity="0.4" d="M11.352 0H4.648C1.736 0 0 1.736 0 4.648V11.352C0 14.264 1.736 16 4.648 16H11.352C14.264 16 16 14.264 16 11.352V4.648C16 1.736 14.264 0 11.352 0Z" fill="#2A47AB"/>
<path d="M13.0001 3.9999C13.0001 4.3279 12.7361 4.5999 12.4001 4.5999H8.2001C7.8721 4.5999 7.6001 4.3279 7.6001 3.9999C7.6001 3.6719 7.8721 3.3999 8.2001 3.3999H12.4001C12.7361 3.3999 13.0001 3.6719 13.0001 3.9999Z" fill="#2A47AB"/>
<path d="M13.0001 7.9999C13.0001 8.3279 12.7361 8.5999 12.4001 8.5999H8.2001C7.8721 8.5999 7.6001 8.3279 7.6001 7.9999C7.6001 7.6719 7.8721 7.3999 8.2001 7.3999H12.4001C12.7361 7.3999 13.0001 7.6719 13.0001 7.9999Z" fill="#2A47AB"/>
<circle cx="3.8" cy="8.0002" r="0.8" fill="#2A47AB"/>
<circle cx="3.8" cy="12.0002" r="0.8" fill="#2A47AB"/>
<circle cx="3.8" cy="4.0002" r="0.8" fill="#2A47AB"/>
<path d="M13.0001 11.9999C13.0001 12.3279 12.7361 12.5999 12.4001 12.5999H8.2001C7.8721 12.5999 7.6001 12.3279 7.6001 11.9999C7.6001 11.6719 7.8721 11.3999 8.2001 11.3999H12.4001C12.7361 11.3999 13.0001 11.6719 13.0001 11.9999Z" fill="#2A47AB"/>
</svg>
