<svg width="18" height="19" viewBox="0 0 18 19" fill="none" xmlns="http://www.w3.org/2000/svg">
<path opacity="0.34" d="M9 12.1938C10.2426 12.1938 11.25 11.1865 11.25 9.94385C11.25 8.70121 10.2426 7.69385 9 7.69385C7.75736 7.69385 6.75 8.70121 6.75 9.94385C6.75 11.1865 7.75736 12.1938 9 12.1938Z" stroke="#2A47AB" stroke-width="1.5" stroke-miterlimit="10" stroke-linecap="round" stroke-linejoin="round"/>
<path d="M1.5 10.6039V9.28392C1.5 8.50392 2.1375 7.85892 2.925 7.85892C4.2825 7.85892 4.8375 6.89892 4.155 5.72142C3.765 5.04642 3.9975 4.16892 4.68 3.77892L5.9775 3.03642C6.57 2.68392 7.335 2.89392 7.6875 3.48642L7.77 3.62892C8.445 4.80642 9.555 4.80642 10.2375 3.62892L10.32 3.48642C10.6725 2.89392 11.4375 2.68392 12.03 3.03642L13.3275 3.77892C14.01 4.16892 14.2425 5.04642 13.8525 5.72142C13.17 6.89892 13.725 7.85892 15.0825 7.85892C15.8625 7.85892 16.5075 8.49642 16.5075 9.28392V10.6039C16.5075 11.3839 15.87 12.0289 15.0825 12.0289C13.725 12.0289 13.17 12.9889 13.8525 14.1664C14.2425 14.8489 14.01 15.7189 13.3275 16.1089L12.03 16.8514C11.4375 17.2039 10.6725 16.9939 10.32 16.4014L10.2375 16.2589C9.5625 15.0814 8.4525 15.0814 7.77 16.2589L7.6875 16.4014C7.335 16.9939 6.57 17.2039 5.9775 16.8514L4.68 16.1089C3.9975 15.7189 3.765 14.8414 4.155 14.1664C4.8375 12.9889 4.2825 12.0289 2.925 12.0289C2.1375 12.0289 1.5 11.3839 1.5 10.6039Z" stroke="#2A47AB" stroke-width="1.5" stroke-miterlimit="10" stroke-linecap="round" stroke-linejoin="round"/>
</svg>
