<svg width="18" height="19" viewBox="0 0 18 19" fill="none" xmlns="http://www.w3.org/2000/svg">
<path d="M9.01507 3.12695C6.53257 3.12695 4.51507 5.14445 4.51507 7.62695V9.79445C4.51507 10.252 4.32007 10.9495 4.08757 11.3395L3.22507 12.772C2.69257 13.657 3.06007 14.6395 4.03507 14.9695C7.26757 16.0495 10.7551 16.0495 13.9876 14.9695C14.8951 14.6695 15.2926 13.597 14.7976 12.772L13.9351 11.3395C13.7101 10.9495 13.5151 10.252 13.5151 9.79445V7.62695C13.5151 5.15195 11.4901 3.12695 9.01507 3.12695Z" stroke="#2A47AB" stroke-width="1.5" stroke-miterlimit="10" stroke-linecap="round"/>
<path d="M10.4024 3.34441C10.1699 3.27691 9.92994 3.22441 9.68244 3.19441C8.96244 3.10441 8.27244 3.15691 7.62744 3.34441C7.84494 2.78941 8.38494 2.39941 9.01494 2.39941C9.64494 2.39941 10.1849 2.78941 10.4024 3.34441Z" stroke="#2A47AB" stroke-width="1.5" stroke-miterlimit="10" stroke-linecap="round" stroke-linejoin="round"/>
<path opacity="0.4" d="M11.265 15.2393C11.265 16.4768 10.2525 17.4893 9.01501 17.4893C8.40001 17.4893 7.83001 17.2343 7.42501 16.8293C7.02001 16.4243 6.76501 15.8543 6.76501 15.2393" stroke="#2A47AB" stroke-width="1.5" stroke-miterlimit="10"/>
</svg>
