<svg width="18" height="19" viewBox="0 0 18 19" fill="none" xmlns="http://www.w3.org/2000/svg">
<path d="M7.49244 18.0066C7.34244 18.0066 7.22244 17.9766 7.13244 17.9391C6.83244 17.8266 6.32244 17.4591 6.32244 16.2966V11.4591H4.56744C3.56244 11.4591 3.20244 10.9866 3.07494 10.7091C2.94744 10.4241 2.83494 9.84657 3.49494 9.08907L9.17244 2.63907C9.93744 1.76907 10.5599 1.82907 10.8599 1.94157C11.1599 2.05407 11.6699 2.42157 11.6699 3.58407V8.42157H13.4249C14.4299 8.42157 14.7899 8.89407 14.9174 9.17157C15.0449 9.45657 15.1574 10.0341 14.4974 10.7916L8.81994 17.2416C8.28744 17.8491 7.82244 18.0066 7.49244 18.0066ZM10.4474 2.99907C10.4249 3.02907 10.2674 3.10407 10.0199 3.38907L4.34244 9.83907C4.13244 10.0791 4.10244 10.2291 4.10244 10.2591C4.11744 10.2666 4.25244 10.3416 4.56744 10.3416H6.88494C7.19244 10.3416 7.44744 10.5966 7.44744 10.9041V16.3041C7.44744 16.6791 7.51494 16.8441 7.54494 16.8891C7.56744 16.8591 7.72494 16.7841 7.97244 16.4991L13.6499 10.0491C13.8599 9.80907 13.8899 9.65907 13.8899 9.62907C13.8749 9.62157 13.7399 9.54657 13.4249 9.54657H11.1074C10.7999 9.54657 10.5449 9.29157 10.5449 8.98407V3.58407C10.5524 3.20907 10.4774 3.05157 10.4474 2.99907Z" fill="#2A47AB"/>
</svg>
