<svg width="20" height="20" viewBox="0 0 20 20" fill="none" xmlns="http://www.w3.org/2000/svg">
<path opacity="0.4" d="M17.5 5.83317V14.1665C17.5 16.6665 16.25 18.3332 13.3333 18.3332H6.66667C3.75 18.3332 2.5 16.6665 2.5 14.1665V5.83317C2.5 3.33317 3.75 1.6665 6.66667 1.6665H13.3333C16.25 1.6665 17.5 3.33317 17.5 5.83317Z" fill="#2A47AB"/>
<path d="M15.4168 7.70833H13.7502C12.4835 7.70833 11.4585 6.68333 11.4585 5.41667V3.75C11.4585 3.40833 11.7418 3.125 12.0835 3.125C12.4252 3.125 12.7085 3.40833 12.7085 3.75V5.41667C12.7085 5.99167 13.1752 6.45833 13.7502 6.45833H15.4168C15.7585 6.45833 16.0418 6.74167 16.0418 7.08333C16.0418 7.425 15.7585 7.70833 15.4168 7.70833Z" fill="#2A47AB"/>
<path d="M9.99984 11.4585H6.6665C6.32484 11.4585 6.0415 11.1752 6.0415 10.8335C6.0415 10.4918 6.32484 10.2085 6.6665 10.2085H9.99984C10.3415 10.2085 10.6248 10.4918 10.6248 10.8335C10.6248 11.1752 10.3415 11.4585 9.99984 11.4585Z" fill="#2A47AB"/>
<path d="M13.3332 14.7915H6.6665C6.32484 14.7915 6.0415 14.5082 6.0415 14.1665C6.0415 13.8248 6.32484 13.5415 6.6665 13.5415H13.3332C13.6748 13.5415 13.9582 13.8248 13.9582 14.1665C13.9582 14.5082 13.6748 14.7915 13.3332 14.7915Z" fill="#2A47AB"/>
</svg>
