<svg width="27" height="27" viewBox="0 0 27 27" fill="none" xmlns="http://www.w3.org/2000/svg">
<path d="M13.4062 2.34344C7.25055 2.34344 2.23438 7.20761 2.23438 13.1768C2.23438 19.1459 7.25055 24.0101 13.4062 24.0101C19.562 24.0101 24.5781 19.1459 24.5781 13.1768C24.5781 7.20761 19.562 2.34344 13.4062 2.34344ZM17.875 13.9893H14.2441V17.5101C14.2441 17.9543 13.8643 18.3226 13.4062 18.3226C12.9482 18.3226 12.5684 17.9543 12.5684 17.5101V13.9893H8.9375C8.47945 13.9893 8.09961 13.6209 8.09961 13.1768C8.09961 12.7326 8.47945 12.3643 8.9375 12.3643H12.5684V8.84344C12.5684 8.39928 12.9482 8.03094 13.4062 8.03094C13.8643 8.03094 14.2441 8.39928 14.2441 8.84344V12.3643H17.875C18.333 12.3643 18.7129 12.7326 18.7129 13.1768C18.7129 13.6209 18.333 13.9893 17.875 13.9893Z" fill="#2A47AB"/>
</svg>
