<svg width="16" height="16" viewBox="0 0 16 16" fill="none" xmlns="http://www.w3.org/2000/svg">
<path d="M8.00016 15.1663C4.04683 15.1663 0.833496 11.953 0.833496 7.99967C0.833496 4.04634 4.04683 0.833008 8.00016 0.833008C11.9535 0.833008 15.1668 4.04634 15.1668 7.99967C15.1668 11.953 11.9535 15.1663 8.00016 15.1663ZM8.00016 1.83301C4.60016 1.83301 1.8335 4.59967 1.8335 7.99967C1.8335 11.3997 4.60016 14.1663 8.00016 14.1663C11.4002 14.1663 14.1668 11.3997 14.1668 7.99967C14.1668 4.59967 11.4002 1.83301 8.00016 1.83301Z" fill="#292D32"/>
<path d="M10.6668 8.5H5.3335C5.06016 8.5 4.8335 8.27333 4.8335 8C4.8335 7.72667 5.06016 7.5 5.3335 7.5H10.6668C10.9402 7.5 11.1668 7.72667 11.1668 8C11.1668 8.27333 10.9402 8.5 10.6668 8.5Z" fill="#292D32"/>
<path d="M8 11.1663C7.72667 11.1663 7.5 10.9397 7.5 10.6663V5.33301C7.5 5.05967 7.72667 4.83301 8 4.83301C8.27333 4.83301 8.5 5.05967 8.5 5.33301V10.6663C8.5 10.9397 8.27333 11.1663 8 11.1663Z" fill="#292D32"/>
</svg>
