<svg width="15" height="16" viewBox="0 0 15 16" fill="none" xmlns="http://www.w3.org/2000/svg">
<path fill-rule="evenodd" clip-rule="evenodd" d="M7.83268 15.1666C3.87935 15.1666 0.666016 11.9533 0.666016 7.99998C0.666016 4.04665 3.87935 0.833313 7.83268 0.833313C11.786 0.833313 14.9993 4.04665 14.9993 7.99998C14.9993 11.9533 11.786 15.1666 7.83268 15.1666ZM7.83268 1.83331C4.43268 1.83331 1.66602 4.59998 1.66602 7.99998C1.66602 11.4 4.43268 14.1666 7.83268 14.1666C11.2327 14.1666 13.9993 11.4 13.9993 7.99998C13.9993 4.59998 11.2327 1.83331 7.83268 1.83331ZM5.16602 8.49998C4.89268 8.49998 4.66602 8.27331 4.66602 7.99998C4.66602 7.72665 4.89268 7.49998 5.16602 7.49998H7.33268V5.33331C7.33268 5.05998 7.55935 4.83331 7.83268 4.83331C8.10602 4.83331 8.33268 5.05998 8.33268 5.33331V7.49998H10.4993C10.7727 7.49998 10.9993 7.72665 10.9993 7.99998C10.9993 8.27331 10.7727 8.49998 10.4993 8.49998H8.33268V10.6666C8.33268 10.94 8.10602 11.1666 7.83268 11.1666C7.55935 11.1666 7.33268 10.94 7.33268 10.6666V8.49998H5.16602Z" fill="white"/>
</svg>
