<svg width="32" height="32" viewBox="0 0 32 32" fill="none" xmlns="http://www.w3.org/2000/svg">
<rect width="32" height="32" rx="6" fill="#EDF3FF"/>
<path opacity="0.4" d="M23.8327 16C23.8327 20.3262 20.3256 23.8333 15.9993 23.8333C11.6731 23.8333 8.16602 20.3262 8.16602 16C8.16602 11.6737 11.6731 8.16663 15.9993 8.16663C20.3256 8.16663 23.8327 11.6737 23.8327 16Z" stroke="#2A47AB"/>
<path d="M19.3327 15.375H16.6243V12.6666C16.6243 12.325 16.341 12.0416 15.9993 12.0416C15.6577 12.0416 15.3743 12.325 15.3743 12.6666V15.375H12.666C12.3243 15.375 12.041 15.6583 12.041 16C12.041 16.3416 12.3243 16.625 12.666 16.625H15.3743V19.3333C15.3743 19.675 15.6577 19.9583 15.9993 19.9583C16.341 19.9583 16.6243 19.675 16.6243 19.3333V16.625H19.3327C19.6743 16.625 19.9577 16.3416 19.9577 16C19.9577 15.6583 19.6743 15.375 19.3327 15.375Z" fill="#2A47AB"/>
</svg>
