<svg width="14" height="14" viewBox="0 0 14 14" fill="none" xmlns="http://www.w3.org/2000/svg">
<path d="M9.444 1.16699H4.55567C2.43234 1.16699 1.1665 2.43283 1.1665 4.55616V9.43866C1.1665 11.5678 2.43234 12.8337 4.55567 12.8337H9.43817C11.5615 12.8337 12.8273 11.5678 12.8273 9.44449V4.55616C12.8332 2.43283 11.5673 1.16699 9.444 1.16699ZM9.549 8.37116L8.254 9.66616C7.939 9.98116 7.53067 10.1328 7.12234 10.1328C6.714 10.1328 6.29984 9.97533 5.99067 9.66616C5.68734 9.36283 5.51817 8.96033 5.51817 8.53449C5.51817 8.10866 5.68734 7.70033 5.99067 7.40283L6.81317 6.58033C6.98234 6.41116 7.26234 6.41116 7.4315 6.58033C7.60067 6.74949 7.60067 7.02949 7.4315 7.19866L6.609 8.02116C6.469 8.16116 6.39317 8.34199 6.39317 8.53449C6.39317 8.72699 6.469 8.91366 6.609 9.04783C6.89484 9.33366 7.35567 9.33366 7.6415 9.04783L8.9365 7.75283C9.67734 7.01199 9.67734 5.81033 8.9365 5.06949C8.19567 4.32866 6.994 4.32866 6.25317 5.06949L4.8415 6.48116C4.544 6.77866 4.38067 7.16949 4.38067 7.58366C4.38067 7.99783 4.544 8.39449 4.8415 8.68616C5.01067 8.85533 5.01067 9.13533 4.8415 9.30449C4.67234 9.47366 4.39234 9.47366 4.22317 9.30449C3.7565 8.85533 3.49984 8.24283 3.49984 7.58949C3.49984 6.93616 3.75067 6.32366 4.2115 5.86283L5.62317 4.45116C6.70234 3.37199 8.464 3.37199 9.54317 4.45116C10.6282 5.53033 10.6282 7.29199 9.549 8.37116Z" fill="#5B6B79"/>
</svg>
