<svg width="44" height="44" viewBox="0 0 44 44" fill="none" xmlns="http://www.w3.org/2000/svg">
<path d="M22.0199 30.53C19.6899 30.53 17.3599 30.16 15.1499 29.42C14.3099 29.13 13.6699 28.54 13.3899 27.77C13.0999 27 13.1999 26.15 13.6599 25.39L14.8099 23.48C15.0499 23.08 15.2699 22.28 15.2699 21.81V18.92C15.2699 15.2 18.2999 12.17 22.0199 12.17C25.7399 12.17 28.7699 15.2 28.7699 18.92V21.81C28.7699 22.27 28.9899 23.08 29.2299 23.49L30.3699 25.39C30.7999 26.11 30.8799 26.98 30.5899 27.77C30.2999 28.56 29.6699 29.16 28.8799 29.42C26.6799 30.16 24.3499 30.53 22.0199 30.53ZM22.0199 13.67C19.1299 13.67 16.7699 16.02 16.7699 18.92V21.81C16.7699 22.54 16.4699 23.62 16.0999 24.25L14.9499 26.16C14.7299 26.53 14.6699 26.92 14.7999 27.25C14.9199 27.59 15.2199 27.85 15.6299 27.99C19.8099 29.39 24.2399 29.39 28.4199 27.99C28.7799 27.87 29.0599 27.6 29.1899 27.24C29.3199 26.88 29.2899 26.49 29.0899 26.16L27.9399 24.25C27.5599 23.6 27.2699 22.53 27.2699 21.8V18.92C27.2699 16.02 24.9199 13.67 22.0199 13.67Z" fill="#292D32"/>
<path d="M23.8806 13.9401C23.8106 13.9401 23.7406 13.9301 23.6706 13.9101C23.3806 13.8301 23.1006 13.7701 22.8306 13.7301C21.9806 13.6201 21.1606 13.6801 20.3906 13.9101C20.1106 14.0001 19.8106 13.9101 19.6206 13.7001C19.4306 13.4901 19.3706 13.1901 19.4806 12.9201C19.8906 11.8701 20.8906 11.1801 22.0306 11.1801C23.1706 11.1801 24.1706 11.8601 24.5806 12.9201C24.6806 13.1901 24.6306 13.4901 24.4406 13.7001C24.2906 13.8601 24.0806 13.9401 23.8806 13.9401Z" fill="#2C2C2C"/>
<path d="M22.0195 32.8101C21.0295 32.8101 20.0695 32.4101 19.3695 31.7101C18.6695 31.0101 18.2695 30.0501 18.2695 29.0601H19.7695C19.7695 29.6501 20.0095 30.2301 20.4295 30.6501C20.8495 31.0701 21.4295 31.3101 22.0195 31.3101C23.2595 31.3101 24.2695 30.3001 24.2695 29.0601H25.7695C25.7695 31.1301 24.0895 32.8101 22.0195 32.8101Z" fill="#292D32"/>
<rect x="22" y="11" width="8" height="8" rx="4" fill="#DC2626"/>
<rect x="22" y="11" width="8" height="8" rx="4" stroke="white" stroke-width="2"/>
</svg>
