<svg width="68" height="68" viewBox="0 0 68 68" fill="none" xmlns="http://www.w3.org/2000/svg">
<rect x="0.5" y="0.5" width="67" height="67" rx="7.5" fill="#E9F0FF"/>
<path d="M18.5376 31.6172C18.4912 31.183 18.2957 30.8449 17.951 30.603C17.6096 30.361 17.1655 30.2401 16.6186 30.2401C16.2341 30.2401 15.9044 30.2981 15.6293 30.4141C15.3542 30.5301 15.1437 30.6875 14.9979 30.8864C14.852 31.0852 14.7775 31.3123 14.7741 31.5675C14.7741 31.7796 14.8222 31.9635 14.9183 32.1193C15.0178 32.2751 15.152 32.4077 15.321 32.517C15.4901 32.6231 15.6773 32.7126 15.8828 32.7855C16.0883 32.8584 16.2955 32.9197 16.5043 32.9695L17.4588 33.2081C17.8433 33.2976 18.2128 33.4186 18.5675 33.571C18.9254 33.7235 19.2453 33.9157 19.527 34.1477C19.812 34.3797 20.0374 34.6598 20.2031 34.9879C20.3688 35.3161 20.4517 35.7005 20.4517 36.1413C20.4517 36.7379 20.2992 37.2633 19.9943 37.7173C19.6894 38.1681 19.2486 38.5211 18.6719 38.7763C18.0985 39.0282 17.4041 39.1541 16.5888 39.1541C15.7966 39.1541 15.1089 39.0315 14.5256 38.7862C13.9455 38.541 13.4915 38.183 13.1634 37.7124C12.8385 37.2417 12.6629 36.6683 12.6364 35.9922H14.451C14.4775 36.3468 14.5869 36.6418 14.7791 36.8771C14.9714 37.1125 15.2216 37.2881 15.5298 37.4041C15.8414 37.5201 16.1894 37.5781 16.5739 37.5781C16.9749 37.5781 17.3262 37.5185 17.6278 37.3991C17.9328 37.2765 18.1714 37.1075 18.3438 36.892C18.5161 36.6733 18.6039 36.4181 18.6072 36.1264C18.6039 35.8613 18.526 35.6425 18.3736 35.4702C18.2211 35.2945 18.0073 35.1487 17.7322 35.0327C17.4605 34.9134 17.1423 34.8073 16.7777 34.7145L15.6193 34.4162C14.7808 34.2008 14.1179 33.8743 13.6307 33.4368C13.1468 32.996 12.9048 32.411 12.9048 31.6818C12.9048 31.0819 13.0672 30.5566 13.392 30.1058C13.7202 29.6551 14.166 29.3054 14.7294 29.0568C15.2929 28.8049 15.9309 28.679 16.6435 28.679C17.366 28.679 17.9991 28.8049 18.5426 29.0568C19.0895 29.3054 19.5187 29.6518 19.8303 30.0959C20.1418 30.5367 20.3026 31.0438 20.3125 31.6172H18.5376ZM25.3972 39.1491C24.6316 39.1491 23.9703 38.9901 23.4135 38.6719C22.86 38.3504 22.4341 37.8963 22.1358 37.3097C21.8375 36.7197 21.6884 36.0253 21.6884 35.2266C21.6884 34.4411 21.8375 33.7517 22.1358 33.1584C22.4374 32.5618 22.8584 32.0978 23.3986 31.7663C23.9389 31.4316 24.5736 31.2642 25.3027 31.2642C25.7734 31.2642 26.2175 31.3404 26.6351 31.4929C27.056 31.642 27.4273 31.8741 27.7488 32.1889C28.0736 32.5038 28.3288 32.9048 28.5144 33.392C28.7 33.8759 28.7928 34.4527 28.7928 35.1222V35.674H22.5336V34.4609H27.0676C27.0643 34.1162 26.9898 33.8097 26.8439 33.5412C26.6981 33.2694 26.4943 33.0556 26.2324 32.8999C25.9739 32.7441 25.6723 32.6662 25.3276 32.6662C24.9597 32.6662 24.6365 32.7557 24.3581 32.9347C24.0797 33.1103 23.8626 33.3423 23.7069 33.6307C23.5544 33.9157 23.4765 34.2289 23.4732 34.5703V35.6293C23.4732 36.0734 23.5544 36.4545 23.7168 36.7727C23.8792 37.0876 24.1062 37.3295 24.3979 37.4986C24.6896 37.6643 25.031 37.7472 25.4221 37.7472C25.6839 37.7472 25.9209 37.7107 26.133 37.6378C26.3451 37.5616 26.5291 37.4505 26.6848 37.3047C26.8406 37.1589 26.9583 36.9782 27.0378 36.7628L28.7182 36.9517C28.6122 37.3958 28.41 37.7836 28.1117 38.1151C27.8167 38.4432 27.4389 38.6984 26.9782 38.8807C26.5175 39.0597 25.9905 39.1491 25.3972 39.1491ZM33.1491 39.1342C32.5492 39.1342 32.0123 38.9801 31.5384 38.6719C31.0644 38.3636 30.6899 37.9162 30.4148 37.3295C30.1397 36.7429 30.0021 36.0303 30.0021 35.1918C30.0021 34.3433 30.1413 33.6274 30.4197 33.044C30.7015 32.4574 31.081 32.0149 31.5582 31.7166C32.0355 31.415 32.5675 31.2642 33.1541 31.2642C33.6016 31.2642 33.9695 31.3404 34.2578 31.4929C34.5462 31.642 34.7749 31.8227 34.9439 32.0348C35.1129 32.2436 35.2438 32.4408 35.3366 32.6264H35.4112V31.3636H37.2159V39H35.446V37.7969H35.3366C35.2438 37.9825 35.1096 38.1797 34.9339 38.3885C34.7583 38.594 34.5263 38.7696 34.2379 38.9155C33.9496 39.0613 33.5866 39.1342 33.1491 39.1342ZM33.6513 37.6577C34.0324 37.6577 34.3572 37.5549 34.6257 37.3494C34.8942 37.1406 35.098 36.8506 35.2372 36.4794C35.3764 36.1082 35.446 35.6757 35.446 35.1818C35.446 34.688 35.3764 34.2588 35.2372 33.8942C35.1013 33.5296 34.8991 33.2462 34.6307 33.044C34.3655 32.8419 34.0391 32.7408 33.6513 32.7408C33.2502 32.7408 32.9155 32.8452 32.647 33.054C32.3786 33.2628 32.1764 33.5511 32.0405 33.919C31.9046 34.2869 31.8366 34.7079 31.8366 35.1818C31.8366 35.6591 31.9046 36.085 32.0405 36.4595C32.1797 36.8307 32.3835 37.1241 32.652 37.3395C32.9238 37.5516 33.2569 37.6577 33.6513 37.6577Z" fill="#E9F0FF"/>
<rect x="0.5" y="0.5" width="67" height="67" rx="7.5" stroke="#2A47AB"/>
<path d="M37 44.75H31C25.57 44.75 23.25 42.43 23.25 37V31C23.25 25.57 25.57 23.25 31 23.25H36C36.41 23.25 36.75 23.59 36.75 24C36.75 24.41 36.41 24.75 36 24.75H31C26.39 24.75 24.75 26.39 24.75 31V37C24.75 41.61 26.39 43.25 31 43.25H37C41.61 43.25 43.25 41.61 43.25 37V32C43.25 31.59 43.59 31.25 44 31.25C44.41 31.25 44.75 31.59 44.75 32V37C44.75 42.43 42.43 44.75 37 44.75Z" fill="#2A47AB"/>
<path d="M44 32.75H40C36.58 32.75 35.25 31.42 35.25 28V24C35.25 23.7 35.43 23.42 35.71 23.31C35.99 23.19 36.31 23.26 36.53 23.47L44.53 31.47C44.74 31.68 44.81 32.01 44.69 32.29C44.57 32.57 44.3 32.75 44 32.75ZM36.75 25.81V28C36.75 30.58 37.42 31.25 40 31.25H42.19L36.75 25.81Z" fill="#2A47AB"/>
<path d="M35 35.75H29C28.59 35.75 28.25 35.41 28.25 35C28.25 34.59 28.59 34.25 29 34.25H35C35.41 34.25 35.75 34.59 35.75 35C35.75 35.41 35.41 35.75 35 35.75Z" fill="#2A47AB"/>
<path d="M33 39.75H29C28.59 39.75 28.25 39.41 28.25 39C28.25 38.59 28.59 38.25 29 38.25H33C33.41 38.25 33.75 38.59 33.75 39C33.75 39.41 33.41 39.75 33 39.75Z" fill="#2A47AB"/>
</svg>
