<svg width="16" height="17" viewBox="0 0 16 17" fill="none" xmlns="http://www.w3.org/2000/svg">
<path d="M14 4.48665C11.78 4.26665 9.54667 4.15332 7.32 4.15332C6 4.15332 4.68 4.21999 3.36 4.35332L2 4.48665" stroke="#1D2630" stroke-width="1.25" stroke-linecap="round" stroke-linejoin="round"/>
<path opacity="0.34" d="M5.66675 3.81325L5.81341 2.93992C5.92008 2.30659 6.00008 1.83325 7.12675 1.83325H8.87342C10.0001 1.83325 10.0867 2.33325 10.1867 2.94659L10.3334 3.81325" stroke="#1D2630" stroke-width="1.25" stroke-linecap="round" stroke-linejoin="round"/>
<path d="M12.5667 6.59351L12.1334 13.3068C12.06 14.3535 12 15.1668 10.14 15.1668H5.86002C4.00002 15.1668 3.94002 14.3535 3.86668 13.3068L3.43335 6.59351" stroke="#1D2630" stroke-width="1.25" stroke-linecap="round" stroke-linejoin="round"/>
<path opacity="0.34" d="M6.88672 11.5H9.10672" stroke="#1D2630" stroke-width="1.25" stroke-linecap="round" stroke-linejoin="round"/>
<path opacity="0.34" d="M6.33325 8.83325H9.66659" stroke="#1D2630" stroke-width="1.25" stroke-linecap="round" stroke-linejoin="round"/>
</svg>
