<svg width="14" height="14" viewBox="0 0 14 14" fill="none" xmlns="http://www.w3.org/2000/svg">
<path d="M8.74999 7.5542H4.66666C4.42749 7.5542 4.22916 7.35587 4.22916 7.1167C4.22916 6.87753 4.42749 6.6792 4.66666 6.6792H8.74999C8.98916 6.6792 9.18749 6.87753 9.18749 7.1167C9.18749 7.35587 8.98916 7.5542 8.74999 7.5542Z" fill="#1E1E1E"/>
<path d="M7.22166 9.88745H4.66666C4.42749 9.88745 4.22916 9.68912 4.22916 9.44995C4.22916 9.21079 4.42749 9.01245 4.66666 9.01245H7.22166C7.46082 9.01245 7.65916 9.21079 7.65916 9.44995C7.65916 9.68912 7.46082 9.88745 7.22166 9.88745Z" fill="#1E1E1E"/>
<path d="M8.16666 3.93758H5.83332C5.27332 3.93758 4.22916 3.93758 4.22916 2.33341C4.22916 0.729248 5.27332 0.729248 5.83332 0.729248H8.16666C8.72666 0.729248 9.77082 0.729248 9.77082 2.33341C9.77082 2.89341 9.77082 3.93758 8.16666 3.93758ZM5.83332 1.60425C5.25582 1.60425 5.10416 1.60425 5.10416 2.33341C5.10416 3.06258 5.25582 3.06258 5.83332 3.06258H8.16666C8.89582 3.06258 8.89582 2.91091 8.89582 2.33341C8.89582 1.60425 8.74416 1.60425 8.16666 1.60425H5.83332Z" fill="#1E1E1E"/>
<path d="M8.75 13.2708H5.25C1.97167 13.2708 1.3125 11.7658 1.3125 9.33333V5.83333C1.3125 3.17333 2.275 2.03583 4.64333 1.91333C4.87667 1.90167 5.0925 2.0825 5.10417 2.3275C5.11583 2.5725 4.92917 2.77083 4.69 2.7825C3.03333 2.87583 2.1875 3.37167 2.1875 5.83333V9.33333C2.1875 11.4917 2.61333 12.3958 5.25 12.3958H8.75C11.3867 12.3958 11.8125 11.4917 11.8125 9.33333V5.83333C11.8125 3.37167 10.9667 2.87583 9.31 2.7825C9.07083 2.77083 8.88417 2.56083 8.89583 2.32167C8.9075 2.0825 9.1175 1.89583 9.35667 1.9075C11.725 2.03583 12.6875 3.17333 12.6875 5.8275V9.3275C12.6875 11.7658 12.0283 13.2708 8.75 13.2708Z" fill="#1E1E1E"/>
</svg>
