<svg width="16" height="16" viewBox="0 0 16 16" fill="none" xmlns="http://www.w3.org/2000/svg">
<path d="M7.39967 15.1666H4.59967C1.99301 15.1666 0.833008 14.0066 0.833008 11.4V8.59998C0.833008 5.99331 1.99301 4.83331 4.59967 4.83331H7.39967C10.0063 4.83331 11.1663 5.99331 11.1663 8.59998V11.4C11.1663 14.0066 10.0063 15.1666 7.39967 15.1666ZM4.59967 5.83331C2.53301 5.83331 1.83301 6.53331 1.83301 8.59998V11.4C1.83301 13.4666 2.53301 14.1666 4.59967 14.1666H7.39967C9.46634 14.1666 10.1663 13.4666 10.1663 11.4V8.59998C10.1663 6.53331 9.46634 5.83331 7.39967 5.83331H4.59967Z" fill="#1D2630"/>
<path d="M11.3997 11.1666H10.6663C10.393 11.1666 10.1663 10.94 10.1663 10.6666V8.59998C10.1663 6.53331 9.46634 5.83331 7.39967 5.83331H5.33301C5.05967 5.83331 4.83301 5.60665 4.83301 5.33331V4.59998C4.83301 1.99331 5.99301 0.833313 8.59967 0.833313H11.3997C14.0063 0.833313 15.1663 1.99331 15.1663 4.59998V7.39998C15.1663 10.0066 14.0063 11.1666 11.3997 11.1666ZM11.1663 10.1666H11.3997C13.4663 10.1666 14.1663 9.46665 14.1663 7.39998V4.59998C14.1663 2.53331 13.4663 1.83331 11.3997 1.83331H8.59967C6.53301 1.83331 5.83301 2.53331 5.83301 4.59998V4.83331H7.39967C10.0063 4.83331 11.1663 5.99331 11.1663 8.59998V10.1666Z" fill="#1D2630"/>
</svg>
