<svg width="12" height="12" viewBox="0 0 12 12" fill="none" xmlns="http://www.w3.org/2000/svg">
<path fill-rule="evenodd" clip-rule="evenodd" d="M0.5 11.5C0.32132 11.3213 0.321319 11.0316 0.5 10.8529L5.35294 6L0.499999 1.14706C0.321319 0.96838 0.321319 0.678682 0.499999 0.500001C0.678679 0.321321 0.968378 0.321321 1.14706 0.500001L6 5.35294L10.8529 0.500001C11.0316 0.321321 11.3213 0.32132 11.5 0.500001C11.6787 0.678681 11.6787 0.96838 11.5 1.14706L6.64706 6L11.5 10.8529C11.6787 11.0316 11.6787 11.3213 11.5 11.5C11.3213 11.6787 11.0316 11.6787 10.8529 11.5L6 6.64706L1.14706 11.5C0.968378 11.6787 0.67868 11.6787 0.5 11.5Z" fill="#1E1E1E"/>
</svg>
