<svg width="20" height="20" viewBox="0 0 20 20" fill="none" xmlns="http://www.w3.org/2000/svg">
<path opacity="0.4" d="M13.4917 3.3335H6.50833C3.475 3.3335 1.66667 5.14183 1.66667 8.17516V13.4835C1.66667 16.5252 3.475 18.3335 6.50833 18.3335H13.4833C16.5167 18.3335 18.325 16.5252 18.325 13.4918V8.17516C18.3333 5.14183 16.525 3.3335 13.4917 3.3335Z" fill="#5B6B79"/>
<path d="M17.75 10.1919H14.85C14.0333 10.1919 13.3083 10.6419 12.9417 11.3752L12.2417 12.7586C12.075 13.0919 11.7417 13.3002 11.375 13.3002H8.64167C8.38333 13.3002 8.01667 13.2419 7.775 12.7586L7.075 11.3836C6.70833 10.6586 5.975 10.2002 5.16667 10.2002H2.25C1.925 10.2002 1.66667 10.4586 1.66667 10.7836V13.5002C1.66667 16.5252 3.48333 18.3336 6.51667 18.3336H13.5C16.3583 18.3336 18.1167 16.7669 18.3333 13.9836V10.7752C18.3333 10.4586 18.075 10.1919 17.75 10.1919Z" fill="#5B6B79"/>
<path d="M12.1083 5.3915C11.8667 5.14984 11.4667 5.14984 11.225 5.3915L10.625 5.9915V1.6665C10.625 1.32484 10.3417 1.0415 10 1.0415C9.65834 1.0415 9.375 1.32484 9.375 1.6665V5.9915L8.775 5.3915C8.53333 5.14984 8.13334 5.14984 7.89167 5.3915C7.65 5.63317 7.65 6.03317 7.89167 6.27484L9.55834 7.9415C9.56667 7.94984 9.575 7.94984 9.575 7.95817C9.625 8.00817 9.69167 8.04984 9.75834 8.08317C9.84167 8.10817 9.91667 8.12484 10 8.12484C10.0833 8.12484 10.1583 8.10817 10.2333 8.07484C10.3083 8.0415 10.375 7.99984 10.4417 7.9415L12.1083 6.27484C12.35 6.03317 12.35 5.63317 12.1083 5.3915Z" fill="#5B6B79"/>
</svg>
