<svg width="20" height="20" viewBox="0 0 20 20" fill="none" xmlns="http://www.w3.org/2000/svg">
<path opacity="0.4" d="M13.4915 3.3335H6.50817C3.47484 3.3335 1.6665 5.14183 1.6665 8.17516V13.4835C1.6665 16.5252 3.47484 18.3335 6.50817 18.3335H13.4832C16.5165 18.3335 18.3248 16.5252 18.3248 13.4918V8.17516C18.3332 5.14183 16.5248 3.3335 13.4915 3.3335Z" fill="#2A47AB"/>
<path d="M17.7498 10.1919H14.8498C14.0332 10.1919 13.3082 10.6419 12.9415 11.3752L12.2415 12.7586C12.0748 13.0919 11.7415 13.3002 11.3748 13.3002H8.6415C8.38317 13.3002 8.0165 13.2419 7.77484 12.7586L7.07484 11.3836C6.70817 10.6586 5.97484 10.2002 5.1665 10.2002H2.24984C1.92484 10.2002 1.6665 10.4586 1.6665 10.7836V13.5002C1.6665 16.5252 3.48317 18.3336 6.5165 18.3336H13.4998C16.3582 18.3336 18.1165 16.7669 18.3332 13.9836V10.7752C18.3332 10.4586 18.0748 10.1919 17.7498 10.1919Z" fill="#2A47AB"/>
<path d="M12.1084 5.3915C11.8667 5.14984 11.4667 5.14984 11.225 5.3915L10.625 5.9915V1.6665C10.625 1.32484 10.3417 1.0415 10 1.0415C9.65837 1.0415 9.37503 1.32484 9.37503 1.6665V5.9915L8.77503 5.3915C8.53337 5.14984 8.13337 5.14984 7.8917 5.3915C7.65003 5.63317 7.65003 6.03317 7.8917 6.27484L9.55837 7.9415C9.5667 7.94984 9.57503 7.94984 9.57503 7.95817C9.62503 8.00817 9.6917 8.04984 9.75837 8.08317C9.8417 8.10817 9.9167 8.12484 10 8.12484C10.0834 8.12484 10.1584 8.10817 10.2334 8.07484C10.3084 8.0415 10.375 7.99984 10.4417 7.9415L12.1084 6.27484C12.35 6.03317 12.35 5.63317 12.1084 5.3915Z" fill="#2A47AB"/>
</svg>
