<svg width="35" height="42" viewBox="0 0 35 42" fill="none" xmlns="http://www.w3.org/2000/svg">
<g clip-path="url(#clip0_254_88134)">
<path d="M34.1706 10.862V40.0821C34.1706 40.5972 33.7558 41.012 33.2407 41.012H3.74626C3.23116 41.012 2.81641 40.5972 2.81641 40.0821V1.91795C2.81641 1.40285 3.23116 0.988098 3.74626 0.988098H23.1461C23.2398 0.988098 23.3267 1.02155 23.3936 1.08175L34.0435 10.581C34.1237 10.6546 34.1706 10.7549 34.1706 10.862Z" fill="white"/>
<path d="M33.2468 41.8415H3.74569C2.7757 41.8415 1.98633 41.0521 1.98633 40.0821V1.91793C1.98633 0.947943 2.7757 0.158569 3.74569 0.158569H23.1455C23.4399 0.158569 23.7275 0.265603 23.9483 0.466291L34.5981 9.96553C34.8523 10.193 34.9995 10.5208 34.9995 10.8619V40.0821C34.9995 41.0521 34.2101 41.8415 33.2468 41.8415ZM3.74569 1.81759C3.69218 1.81759 3.64535 1.86442 3.64535 1.91793V40.0821C3.64535 40.1356 3.69218 40.1825 3.74569 40.1825H33.2468C33.3004 40.1825 33.3472 40.1356 33.3472 40.0821V11.0693L22.9716 1.81759H3.74569Z" fill="#CFD1D4"/>
<path d="M34.1711 10.6947H23.9026C23.5614 10.6947 23.2871 10.4204 23.2871 10.0793V0.988098L34.1711 10.6947Z" fill="#F5F5F5"/>
<path d="M34.1705 11.5242H23.902C23.1059 11.5242 22.457 10.8753 22.457 10.0793V0.9881L23.8418 0.365967L34.7258 10.0726L34.1705 11.5242ZM24.1161 9.8652H31.9964L24.1161 2.84112V9.8652Z" fill="#CFD1D4"/>
<path d="M20.8044 35.8744H1.75237C1.2172 35.8744 0.789062 35.4395 0.789062 34.9111V24.8499C0.789062 24.3147 1.22389 23.8866 1.75237 23.8866H20.8044C21.3395 23.8866 21.7677 24.3214 21.7677 24.8499V34.9111C21.7743 35.4462 21.3395 35.8744 20.8044 35.8744Z" fill="#77AAC9"/>
<path d="M20.236 36.7039H1.53192C0.689029 36.7039 0 35.861 0 34.8241V24.9435C0 23.9066 0.689029 23.0571 1.53192 23.0571H20.236C21.0789 23.0571 21.768 23.9 21.768 24.9435V34.8241C21.7747 35.861 21.0856 36.7039 20.236 36.7039ZM1.53192 24.7161C1.43157 24.7161 1.3513 24.8164 1.3513 24.9368V34.8174C1.3513 34.9378 1.43157 35.0381 1.53192 35.0381H20.236C20.3364 35.0381 20.4167 34.9378 20.4167 34.8174V24.9435C20.4167 24.8231 20.3364 24.7228 20.236 24.7228H1.53192V24.7161Z" fill="#213F96"/>
<path d="M6.10707 32.3489C5.61873 32.3489 5.21735 32.1683 4.88956 31.8138C4.56177 31.4592 4.39453 30.9909 4.39453 30.409C4.39453 30.1414 4.43467 29.8939 4.50825 29.653C4.58184 29.4189 4.69556 29.2048 4.83604 29.0175C4.97653 28.8302 5.16384 28.683 5.39797 28.576C5.63211 28.469 5.88631 28.4155 6.17397 28.4155C6.43486 28.4155 6.64893 28.469 6.82955 28.576C7.01017 28.683 7.13058 28.7901 7.20416 28.9038V26.9304H8.10057V31.2585C8.10057 31.2719 8.11395 31.6064 8.13402 32.262H7.20416L7.19747 31.7803C7.17741 31.8338 7.13727 31.894 7.09044 31.9543C7.03692 32.0145 6.97003 32.0747 6.88306 32.1349C6.7961 32.1951 6.68906 32.2486 6.54858 32.2887C6.42148 32.3289 6.26762 32.3489 6.10707 32.3489ZM6.29438 31.6131C6.46162 31.6131 6.6021 31.5796 6.7292 31.5127C6.85631 31.4458 6.94996 31.3522 7.02355 31.2318C7.09713 31.1114 7.15065 30.9843 7.1841 30.8438C7.21754 30.7033 7.23761 30.5494 7.23761 30.3889C7.23761 30.021 7.15734 29.7266 6.99679 29.4925C6.83624 29.265 6.6021 29.1446 6.281 29.1446C6.06693 29.1446 5.893 29.2048 5.74583 29.3185C5.59866 29.4323 5.49832 29.5794 5.43811 29.7601C5.3779 29.9407 5.34445 30.1414 5.34445 30.3755C5.34445 30.5427 5.36452 30.6966 5.39797 30.8438C5.43142 30.9909 5.48494 31.1181 5.55852 31.2385C5.63211 31.3589 5.73245 31.4525 5.85286 31.5194C5.97997 31.5796 6.12714 31.6131 6.29438 31.6131Z" fill="white"/>
<path d="M11.0036 32.3489C10.6758 32.3489 10.3881 32.2954 10.1272 32.1884C9.87302 32.0813 9.66564 31.9409 9.50509 31.7536C9.34454 31.5729 9.23082 31.3656 9.14385 31.1314C9.06358 30.8973 9.02344 30.6498 9.02344 30.3822C9.02344 30.1146 9.06358 29.8604 9.15054 29.6263C9.23082 29.3921 9.35792 29.1847 9.51178 28.9974C9.67233 28.8168 9.87971 28.6696 10.1339 28.5693C10.3881 28.4623 10.6758 28.4088 10.9969 28.4088C11.3247 28.4088 11.6123 28.4623 11.8665 28.5626C12.1207 28.6696 12.3214 28.8101 12.4753 28.9907C12.6291 29.1714 12.7429 29.3787 12.8231 29.6129C12.9034 29.847 12.9369 30.1079 12.9369 30.3822C12.9369 30.6431 12.8967 30.8906 12.8164 31.118C12.7362 31.3455 12.6158 31.5529 12.4619 31.7402C12.308 31.9208 12.1007 32.068 11.8531 32.175C11.6056 32.2954 11.318 32.3489 11.0036 32.3489ZM10.9835 31.6131C11.1641 31.6131 11.318 31.5796 11.4518 31.5127C11.5856 31.4458 11.6926 31.3522 11.7662 31.2318C11.8398 31.1114 11.9 30.9843 11.9401 30.8371C11.9802 30.6899 11.9936 30.536 11.9936 30.3688C11.9936 30.0076 11.9067 29.7199 11.7394 29.4858C11.5722 29.2583 11.318 29.1446 10.9835 29.1446C10.756 29.1446 10.562 29.1981 10.4082 29.3119C10.2543 29.4256 10.1406 29.5727 10.067 29.7534C10.0001 29.934 9.95998 30.1414 9.95998 30.3688C9.95998 30.5963 9.99343 30.7969 10.0536 30.9776C10.1205 31.1582 10.2276 31.3054 10.3881 31.4258C10.562 31.5529 10.756 31.6131 10.9835 31.6131Z" fill="white"/>
<path d="M15.6933 32.3489C15.3856 32.3489 15.1113 32.2954 14.8571 32.1884C14.6029 32.0813 14.3955 31.9342 14.235 31.7536C14.0744 31.5729 13.9473 31.3589 13.8604 31.1247C13.7734 30.8906 13.7266 30.6431 13.7266 30.3822C13.7266 30.0143 13.8001 29.6798 13.954 29.3787C14.1079 29.0844 14.3353 28.8503 14.6297 28.6696C14.9307 28.4957 15.2785 28.4088 15.6732 28.4088C16.2619 28.4088 16.7168 28.576 17.0312 28.9105L16.7034 29.4925C16.4358 29.2516 16.1214 29.1312 15.7669 29.1312C15.4123 29.1312 15.1381 29.245 14.9508 29.4657C14.7635 29.6932 14.6631 29.9942 14.6631 30.3688C14.6631 30.7367 14.7635 31.0311 14.9641 31.2585C15.1648 31.486 15.4458 31.5997 15.7936 31.5997C15.8405 31.5997 15.894 31.5997 15.9408 31.593C15.9876 31.5863 16.0345 31.5796 16.0746 31.5729C16.1147 31.5662 16.1549 31.5529 16.195 31.5395C16.2352 31.5261 16.2753 31.5127 16.3021 31.506C16.3288 31.4927 16.3623 31.4793 16.4024 31.4592C16.4425 31.4391 16.4693 31.4258 16.4894 31.4124C16.5094 31.399 16.5362 31.3856 16.5696 31.3656C16.6031 31.3455 16.6232 31.3254 16.6365 31.3187C16.6499 31.312 16.67 31.2987 16.6967 31.2786C16.7235 31.2585 16.7369 31.2451 16.7436 31.2451L17.0178 31.9074C16.8105 32.0546 16.5964 32.1616 16.389 32.2285C16.1816 32.3155 15.9475 32.3489 15.6933 32.3489Z" fill="white"/>
</g>
<defs>
<clipPath id="clip0_254_88134">
<rect width="35" height="41.6829" fill="white" transform="translate(0 0.158569)"/>
</clipPath>
</defs>
</svg>
