<svg width="18" height="18" viewBox="0 0 18 18" fill="none" xmlns="http://www.w3.org/2000/svg">
<path d="M9.50828 14.9677C9.71433 15.0157 9.73321 15.2855 9.53251 15.3524L8.34751 15.7424C5.37001 16.7024 3.80251 15.8999 2.83501 12.9224L1.87501 9.95994C0.915012 6.98244 1.71001 5.40744 4.68751 4.44744L4.82651 4.40141C5.22937 4.26799 5.6273 4.67423 5.52164 5.08524C5.50337 5.15632 5.48535 5.22872 5.46751 5.30244L4.73251 8.44494C3.90751 11.9774 5.11501 13.9274 8.64751 14.7674L9.50828 14.9677Z" fill="white"/>
<path d="M12.8774 2.40738L11.6249 2.11488C9.11989 1.52238 7.62739 2.00988 6.74989 3.82488C6.52489 4.28238 6.34489 4.83738 6.19489 5.47488L5.45989 8.61738C4.72489 11.7524 5.69239 13.2974 8.81989 14.0399L10.0799 14.3399C10.5149 14.4449 10.9199 14.5124 11.2949 14.5424C13.6349 14.7674 14.8799 13.6724 15.5099 10.9649L16.2449 7.82988C16.9799 4.69488 16.0199 3.14238 12.8774 2.40738ZM11.4674 9.99738C11.3999 10.2524 11.1749 10.4174 10.9199 10.4174C10.8749 10.4174 10.8299 10.4099 10.7774 10.4024L8.59489 9.84738C8.29489 9.77238 8.11489 9.46488 8.18989 9.16488C8.26489 8.86488 8.57239 8.68488 8.87239 8.75988L11.0549 9.31488C11.3624 9.38988 11.5424 9.69738 11.4674 9.99738ZM13.6649 7.46238C13.5974 7.71738 13.3724 7.88238 13.1174 7.88238C13.0724 7.88238 13.0274 7.87488 12.9749 7.86738L9.33739 6.94488C9.03739 6.86988 8.85739 6.56238 8.93239 6.26238C9.00739 5.96238 9.31489 5.78238 9.61489 5.85738L13.2524 6.77988C13.5599 6.84738 13.7399 7.15488 13.6649 7.46238Z" fill="white"/>
</svg>
