<svg width="16" height="16" viewBox="0 0 16 16" fill="none" xmlns="http://www.w3.org/2000/svg">
<path d="M8.66679 7.83341C8.54012 7.83341 8.41346 7.78674 8.31346 7.68674C8.12012 7.49341 8.12012 7.17341 8.31346 6.98008L13.7801 1.51341C13.9735 1.32007 14.2935 1.32007 14.4868 1.51341C14.6801 1.70674 14.6801 2.02674 14.4868 2.22007L9.02012 7.68674C8.92012 7.78674 8.79346 7.83341 8.66679 7.83341Z" fill="#1E1E1E"/>
<path d="M14.6668 5.03325C14.3935 5.03325 14.1668 4.80659 14.1668 4.53325V1.83325H11.4668C11.1935 1.83325 10.9668 1.60659 10.9668 1.33325C10.9668 1.05992 11.1935 0.833252 11.4668 0.833252H14.6668C14.9401 0.833252 15.1668 1.05992 15.1668 1.33325V4.53325C15.1668 4.80659 14.9401 5.03325 14.6668 5.03325Z" fill="#1E1E1E"/>
<path d="M9.99992 15.1666H5.99992C2.37992 15.1666 0.833252 13.6199 0.833252 9.99992V5.99992C0.833252 2.37992 2.37992 0.833252 5.99992 0.833252H7.33325C7.60658 0.833252 7.83325 1.05992 7.83325 1.33325C7.83325 1.60659 7.60658 1.83325 7.33325 1.83325H5.99992C2.92659 1.83325 1.83325 2.92659 1.83325 5.99992V9.99992C1.83325 13.0733 2.92659 14.1666 5.99992 14.1666H9.99992C13.0733 14.1666 14.1666 13.0733 14.1666 9.99992V8.66658C14.1666 8.39325 14.3933 8.16658 14.6666 8.16658C14.9399 8.16658 15.1666 8.39325 15.1666 8.66658V9.99992C15.1666 13.6199 13.6199 15.1666 9.99992 15.1666Z" fill="#1E1E1E"/>
</svg>
