<svg width="16" height="16" viewBox="0 0 16 16" fill="none" xmlns="http://www.w3.org/2000/svg">
<path d="M10.1733 14.8342H5.82665C2.55332 14.8342 1.15332 13.4342 1.15332 10.1608V10.0742C1.15332 7.11416 2.31999 5.6875 4.93332 5.44083C5.19999 5.42083 5.45332 5.62083 5.47999 5.89416C5.50665 6.1675 5.30665 6.41416 5.02665 6.44083C2.93332 6.63416 2.15332 7.62083 2.15332 10.0808V10.1675C2.15332 12.8808 3.11332 13.8408 5.82665 13.8408H10.1733C12.8867 13.8408 13.8467 12.8808 13.8467 10.1675V10.0808C13.8467 7.6075 13.0533 6.62083 10.92 6.44083C10.6467 6.41416 10.44 6.17416 10.4667 5.90083C10.4933 5.6275 10.7267 5.42083 11.0067 5.4475C13.66 5.67416 14.8467 7.1075 14.8467 10.0875V10.1742C14.8467 13.4342 13.4467 14.8342 10.1733 14.8342Z" fill="#2A47AB"/>
<path d="M8 10.5007C7.72667 10.5007 7.5 10.2741 7.5 10.0007V2.41406C7.5 2.14073 7.72667 1.91406 8 1.91406C8.27333 1.91406 8.5 2.14073 8.5 2.41406V10.0007C8.5 10.2741 8.27333 10.5007 8 10.5007Z" fill="#2A47AB"/>
<path d="M10.2336 4.39964C10.1069 4.39964 9.98022 4.35297 9.88022 4.25297L8.00022 2.37297L6.12022 4.25297C5.92689 4.4463 5.60689 4.4463 5.41355 4.25297C5.22022 4.05964 5.22022 3.73964 5.41355 3.5463L7.64689 1.31297C7.84022 1.11964 8.16022 1.11964 8.35355 1.31297L10.5869 3.5463C10.7802 3.73964 10.7802 4.05964 10.5869 4.25297C10.4936 4.35297 10.3602 4.39964 10.2336 4.39964Z" fill="#2A47AB"/>
</svg>
