<svg width="24" height="26" viewBox="0 0 24 26" fill="none" xmlns="http://www.w3.org/2000/svg">
<g filter="url(#filter0_d_405_90858)">
<rect width="24" height="24" rx="12" fill="#2A47AB"/>
<rect x="0.5" y="0.5" width="23" height="23" rx="11.5" stroke="#2A47AB"/>
</g>
<path d="M14.5 17.375H9.5C7.295 17.375 6.625 16.705 6.625 14.5V9.5C6.625 7.295 7.295 6.625 9.5 6.625H10.25C11.125 6.625 11.4 6.91 11.75 7.375L12.5 8.375C12.665 8.595 12.69 8.625 13 8.625H14.5C16.705 8.625 17.375 9.295 17.375 11.5V14.5C17.375 16.705 16.705 17.375 14.5 17.375ZM9.5 7.375C7.715 7.375 7.375 7.715 7.375 9.5V14.5C7.375 16.285 7.715 16.625 9.5 16.625H14.5C16.285 16.625 16.625 16.285 16.625 14.5V11.5C16.625 9.715 16.285 9.375 14.5 9.375H13C12.36 9.375 12.15 9.155 11.9 8.825L11.15 7.825C10.89 7.48 10.815 7.375 10.25 7.375H9.5Z" fill="white"/>
<defs>
<filter id="filter0_d_405_90858" x="0" y="0" width="24" height="26" filterUnits="userSpaceOnUse" color-interpolation-filters="sRGB">
<feFlood flood-opacity="0" result="BackgroundImageFix"/>
<feColorMatrix in="SourceAlpha" type="matrix" values="0 0 0 0 0 0 0 0 0 0 0 0 0 0 0 0 0 0 127 0" result="hardAlpha"/>
<feOffset dy="2"/>
<feColorMatrix type="matrix" values="0 0 0 0 0 0 0 0 0 0 0 0 0 0 0 0 0 0 0.043 0"/>
<feBlend mode="normal" in2="BackgroundImageFix" result="effect1_dropShadow_405_90858"/>
<feBlend mode="normal" in="SourceGraphic" in2="effect1_dropShadow_405_90858" result="shape"/>
</filter>
</defs>
</svg>
