<svg width="14" height="14" viewBox="0 0 14 14" fill="none" xmlns="http://www.w3.org/2000/svg">
<path d="M12.2498 3.0625H8.1665C7.92734 3.0625 7.729 2.86417 7.729 2.625C7.729 2.38583 7.92734 2.1875 8.1665 2.1875H12.2498C12.489 2.1875 12.6873 2.38583 12.6873 2.625C12.6873 2.86417 12.489 3.0625 12.2498 3.0625Z" fill="#5B6B79"/>
<path d="M12.2498 5.97949H8.1665C7.92734 5.97949 7.729 5.78116 7.729 5.54199C7.729 5.30283 7.92734 5.10449 8.1665 5.10449H12.2498C12.489 5.10449 12.6873 5.30283 12.6873 5.54199C12.6873 5.78116 12.489 5.97949 12.2498 5.97949Z" fill="#5B6B79"/>
<path d="M12.25 8.89551H1.75C1.51083 8.89551 1.3125 8.69717 1.3125 8.45801C1.3125 8.21884 1.51083 8.02051 1.75 8.02051H12.25C12.4892 8.02051 12.6875 8.21884 12.6875 8.45801C12.6875 8.69717 12.4892 8.89551 12.25 8.89551Z" fill="#5B6B79"/>
<path d="M12.25 11.8125H1.75C1.51083 11.8125 1.3125 11.6142 1.3125 11.375C1.3125 11.1358 1.51083 10.9375 1.75 10.9375H12.25C12.4892 10.9375 12.6875 11.1358 12.6875 11.375C12.6875 11.6142 12.4892 11.8125 12.25 11.8125Z" fill="#5B6B79"/>
<path d="M4.62 2.04199H2.96333C2.14667 2.04199 1.75 2.43866 1.75 3.25533V4.91783C1.75 5.73449 2.14667 6.13116 2.96333 6.13116H4.62583C5.4425 6.13116 5.83917 5.73449 5.83917 4.91783V3.25533C5.83333 2.43866 5.43667 2.04199 4.62 2.04199Z" fill="#5B6B79"/>
</svg>
