<svg width="14" height="14" viewBox="0 0 14 14" fill="none" xmlns="http://www.w3.org/2000/svg">
<path d="M10.5119 7.19283L9.80023 6.48116C9.63106 6.33533 9.5319 6.11949 9.52606 5.88033C9.5144 5.61783 9.6194 5.35533 9.81189 5.16283L10.5119 4.46283C11.1186 3.85616 11.3461 3.27283 11.1536 2.81199C10.9669 2.35699 10.3894 2.10616 9.53773 2.10616H3.44189V1.60449C3.44189 1.36533 3.24356 1.16699 3.00439 1.16699C2.76523 1.16699 2.56689 1.36533 2.56689 1.60449V12.3962C2.56689 12.6353 2.76523 12.8337 3.00439 12.8337C3.24356 12.8337 3.44189 12.6353 3.44189 12.3962V9.54949H9.53773C10.3777 9.54949 10.9436 9.29283 11.1361 8.83199C11.3286 8.37116 11.1069 7.79366 10.5119 7.19283Z" fill="#5B6B79"/>
</svg>
