<svg width="18" height="19" viewBox="0 0 18 19" fill="none" xmlns="http://www.w3.org/2000/svg">
<path d="M7.49341 18.0065C7.34341 18.0065 7.22341 17.9765 7.13341 17.939C6.83341 17.8265 6.32341 17.459 6.32341 16.2965V11.459H4.56841C3.56341 11.459 3.20341 10.9865 3.07591 10.709C2.94841 10.424 2.83591 9.84651 3.49591 9.089L9.17341 2.639C9.93841 1.76901 10.5609 1.82901 10.8609 1.94151C11.1609 2.05401 11.6709 2.4215 11.6709 3.584V8.42151H13.4259C14.4309 8.42151 14.7909 8.89401 14.9184 9.17151C15.0459 9.45651 15.1584 10.034 14.4984 10.7915L8.82091 17.2415C8.28841 17.849 7.82341 18.0065 7.49341 18.0065ZM10.4484 2.999C10.4259 3.029 10.2684 3.104 10.0209 3.389L4.34341 9.839C4.13341 10.079 4.10341 10.229 4.10341 10.259C4.11841 10.2665 4.25341 10.3415 4.56841 10.3415H6.88591C7.19341 10.3415 7.44841 10.5965 7.44841 10.904V16.304C7.44841 16.679 7.51591 16.844 7.54591 16.889C7.56841 16.859 7.72591 16.784 7.97341 16.499L13.6509 10.049C13.8609 9.80901 13.8909 9.65901 13.8909 9.62901C13.8759 9.62151 13.7409 9.54651 13.4259 9.54651H11.1084C10.8009 9.54651 10.5459 9.29151 10.5459 8.98401V3.584C10.5534 3.209 10.4784 3.0515 10.4484 2.999Z" fill="#292D32"/>
</svg>
