<svg width="35" height="35" viewBox="0 0 35 35" fill="none" xmlns="http://www.w3.org/2000/svg">
<path d="M30.7127 17.2375L30.4794 16.9167C30.071 16.4208 29.5898 16.0271 29.0356 15.7354C28.2919 15.3125 27.446 15.0938 26.571 15.0938H8.41479C7.53979 15.0938 6.70854 15.3125 5.95021 15.7354C5.38146 16.0417 4.87104 16.4646 4.44812 16.9896C3.61687 18.0542 3.22312 19.3667 3.35437 20.6792L3.89396 27.4896C4.08354 29.5458 4.33146 32.0833 8.95437 32.0833H26.046C30.669 32.0833 30.9023 29.5458 31.1065 27.475L31.646 20.6937C31.7773 19.4687 31.4565 18.2437 30.7127 17.2375ZM20.9856 25.2875H14.0002C13.4315 25.2875 12.9794 24.8208 12.9794 24.2667C12.9794 23.7125 13.4315 23.2458 14.0002 23.2458H20.9856C21.5544 23.2458 22.0065 23.7125 22.0065 24.2667C22.0065 24.8354 21.5544 25.2875 20.9856 25.2875Z" fill="#E99C26"/>
<path d="M30.018 12.9316C30.0448 13.3153 29.6316 13.5696 29.2743 13.427C28.4288 13.0896 27.5282 12.9209 26.5854 12.9209H8.41462C7.46896 12.9209 6.54028 13.0991 5.69333 13.4362C5.34009 13.5768 4.9292 13.331 4.9292 12.9508V9.71258C4.9292 4.50633 6.51878 2.91675 11.725 2.91675H13.4459C15.5313 2.91675 16.1875 3.58758 17.0334 4.68133L18.7834 7.01466C19.1479 7.5105 19.1625 7.53966 19.8042 7.53966H23.275C27.9887 7.53966 29.7327 8.84528 30.018 12.9316Z" fill="#E99C26"/>
</svg>
