<svg width="18" height="18" viewBox="0 0 18 18" fill="none" xmlns="http://www.w3.org/2000/svg">
<path d="M15.7949 8.86495L15.6749 8.69995C15.4649 8.44495 15.2174 8.24245 14.9324 8.09245C14.5499 7.87495 14.1149 7.76245 13.6649 7.76245H4.3274C3.8774 7.76245 3.4499 7.87495 3.0599 8.09245C2.7674 8.24995 2.5049 8.46745 2.2874 8.73745C1.8599 9.28495 1.6574 9.95995 1.7249 10.635L2.0024 14.1375C2.0999 15.195 2.2274 16.5 4.6049 16.5H13.3949C15.7724 16.5 15.8924 15.195 15.9974 14.13L16.2749 10.6425C16.3424 10.0125 16.1774 9.38245 15.7949 8.86495ZM10.7924 13.005H7.1999C6.9074 13.005 6.6749 12.7649 6.6749 12.4799C6.6749 12.195 6.9074 11.955 7.1999 11.955H10.7924C11.0849 11.955 11.3174 12.195 11.3174 12.4799C11.3174 12.7724 11.0849 13.005 10.7924 13.005Z" fill="white"/>
<path d="M15.3959 6.23212C15.4469 6.61341 15.0283 6.87268 14.6568 6.77265C14.3408 6.68755 14.0119 6.645 13.6724 6.645H4.32741C3.98225 6.645 3.64148 6.69117 3.31701 6.77994C2.9503 6.88027 2.53491 6.63007 2.53491 6.24989V4.995C2.53491 2.3175 3.35241 1.5 6.02991 1.5H6.91491C7.98741 1.5 8.32491 1.845 8.75991 2.4075L9.65991 3.6075C9.84741 3.8625 9.85491 3.8775 10.1849 3.8775H11.9699C14.2253 3.8775 15.1587 4.45873 15.3959 6.23212Z" fill="white"/>
</svg>
