<svg width="20" height="20" viewBox="0 0 20 20" fill="none" xmlns="http://www.w3.org/2000/svg">
<path d="M16.2505 6.25L15.0088 7.49167L12.5088 4.99167L13.7505 3.75C14.1005 3.4 14.5505 3.23334 15.0005 3.23334C15.4505 3.23334 15.9005 3.4 16.2505 3.75C16.9421 4.44167 16.9421 5.55834 16.2505 6.25Z" fill="#5B6B79"/>
<path opacity="0.4" d="M15.0079 7.49164L5.41621 17.0833C4.72454 17.775 3.60788 17.775 2.91621 17.0833C2.22454 16.3916 2.22454 15.275 2.91621 14.5833L12.5079 4.99164L15.0079 7.49164Z" fill="#5B6B79"/>
<path d="M8.29176 2.91668L8.63343 1.75835C8.66676 1.65001 8.63343 1.53335 8.55843 1.45001C8.48343 1.36668 8.3501 1.33335 8.24176 1.36668L7.08343 1.70835L5.9251 1.36668C5.81676 1.33335 5.7001 1.36668 5.61676 1.44168C5.53343 1.52501 5.50843 1.64168 5.54176 1.75001L5.8751 2.91668L5.53343 4.07501C5.5001 4.18335 5.53343 4.30001 5.60843 4.38335C5.69176 4.46668 5.80843 4.49168 5.91676 4.45835L7.08343 4.12501L8.24176 4.46668C8.2751 4.47501 8.3001 4.48335 8.33343 4.48335C8.41676 4.48335 8.49176 4.45001 8.55843 4.39168C8.64176 4.30835 8.66676 4.19168 8.63343 4.08335L8.29176 2.91668Z" fill="#5B6B79"/>
<path d="M4.95875 7.91668L5.30042 6.75835C5.33375 6.65001 5.30042 6.53335 5.22542 6.45001C5.14209 6.36668 5.02542 6.34168 4.91709 6.37501L3.75042 6.70835L2.59209 6.36668C2.48375 6.33335 2.36709 6.36668 2.28375 6.44168C2.20042 6.52501 2.17542 6.64168 2.20875 6.75001L2.54209 7.91668L2.20042 9.07501C2.16709 9.18335 2.20042 9.30001 2.27542 9.38335C2.35875 9.46668 2.47542 9.49168 2.58375 9.45835L3.74209 9.11668L4.90042 9.45835C4.92542 9.46668 4.95875 9.46668 4.99209 9.46668C5.07542 9.46668 5.15042 9.43335 5.21709 9.37501C5.30042 9.29168 5.32542 9.17501 5.29209 9.06668L4.95875 7.91668Z" fill="#5B6B79"/>
<path d="M17.4581 12.0833L17.7998 10.925C17.8331 10.8166 17.7998 10.7 17.7248 10.6166C17.6414 10.5333 17.5248 10.5083 17.4164 10.5416L16.2581 10.8833L15.0998 10.5416C14.9914 10.5083 14.8748 10.5416 14.7914 10.6166C14.7081 10.7 14.6831 10.8166 14.7164 10.925L15.0581 12.0833L14.7164 13.2416C14.6831 13.35 14.7164 13.4666 14.7914 13.55C14.8748 13.6333 14.9914 13.6583 15.0998 13.625L16.2581 13.2833L17.4164 13.625C17.4414 13.6333 17.4748 13.6333 17.5081 13.6333C17.5914 13.6333 17.6664 13.6 17.7331 13.5416C17.8164 13.4583 17.8414 13.3416 17.8081 13.2333L17.4581 12.0833Z" fill="#5B6B79"/>
</svg>
