<svg width="10" height="10" viewBox="0 0 10 10" fill="none" xmlns="http://www.w3.org/2000/svg">
<path d="M6.45866 4.6875H3.54199C3.37116 4.6875 3.22949 4.54583 3.22949 4.375C3.22949 4.20417 3.37116 4.0625 3.54199 4.0625H6.45866C6.62949 4.0625 6.77116 4.20417 6.77116 4.375C6.77116 4.54583 6.62949 4.6875 6.45866 4.6875Z" fill="#ADB5BC"/>
<path d="M6.66634 9.29994C6.52467 9.29994 6.38301 9.25828 6.26217 9.17911L4.48717 7.99577H2.91634C1.48301 7.99577 0.520508 7.03327 0.520508 5.59994V3.09994C0.520508 1.6666 1.48301 0.704102 2.91634 0.704102H7.08301C8.51634 0.704102 9.47884 1.6666 9.47884 3.09994V5.59994C9.47884 6.92494 8.65384 7.84994 7.39551 7.97911V8.57077C7.39551 8.8416 7.24967 9.08743 7.01217 9.21243C6.90384 9.27076 6.78301 9.29994 6.66634 9.29994ZM2.91634 1.32493C1.84134 1.32493 1.14551 2.02076 1.14551 3.09576V5.59576C1.14551 6.67076 1.84134 7.3666 2.91634 7.3666H4.58301C4.64551 7.3666 4.70385 7.38327 4.75801 7.42077L6.61217 8.65411C6.65801 8.68328 6.69968 8.67078 6.72051 8.65828C6.74134 8.64578 6.77468 8.62077 6.77468 8.5666V7.6791C6.77468 7.50826 6.91635 7.3666 7.08718 7.3666C8.16218 7.3666 8.85801 6.67076 8.85801 5.59576V3.09576C8.85801 2.02076 8.16218 1.32493 7.08718 1.32493H2.91634Z" fill="#ADB5BC"/>
</svg>
