<svg width="14" height="14" viewBox="0 0 14 14" fill="none" xmlns="http://www.w3.org/2000/svg">
<path d="M7.00008 13.3059C6.59758 13.3059 6.21841 13.1017 5.95008 12.7459L5.07508 11.5792C5.05758 11.5559 4.98758 11.5209 4.95258 11.5209H4.66675C2.23425 11.5209 0.729248 10.8617 0.729248 7.58341V4.66675C0.729248 2.08841 2.08841 0.729248 4.66675 0.729248H8.16675C8.40592 0.729248 8.60425 0.927581 8.60425 1.16675C8.60425 1.40591 8.40592 1.60425 8.16675 1.60425H4.66675C2.57841 1.60425 1.60425 2.57841 1.60425 4.66675V7.58341C1.60425 10.2201 2.50841 10.6459 4.66675 10.6459H4.95842C5.25592 10.6459 5.59425 10.8151 5.77508 11.0542L6.65008 12.2209C6.85425 12.4892 7.14592 12.4892 7.35008 12.2209L8.22508 11.0542C8.41758 10.7976 8.72092 10.6459 9.04175 10.6459H9.33342C11.4217 10.6459 12.3959 9.67175 12.3959 7.58341V5.83341C12.3959 5.59425 12.5942 5.39591 12.8334 5.39591C13.0726 5.39591 13.2709 5.59425 13.2709 5.83341V7.58341C13.2709 10.1617 11.9117 11.5209 9.33342 11.5209H9.04175C8.99508 11.5209 8.95425 11.5442 8.92508 11.5792L8.05008 12.7459C7.78175 13.1017 7.40258 13.3059 7.00008 13.3059Z" fill="#2A47AB"/>
<path d="M7.00008 6.99992C6.67341 6.99992 6.41675 6.73742 6.41675 6.41659C6.41675 6.09575 6.67925 5.83325 7.00008 5.83325C7.32091 5.83325 7.58341 6.09575 7.58341 6.41659C7.58341 6.73742 7.32675 6.99992 7.00008 6.99992Z" fill="#2A47AB"/>
<path d="M9.33333 6.99992C9.00667 6.99992 8.75 6.73742 8.75 6.41659C8.75 6.09575 9.0125 5.83325 9.33333 5.83325C9.65417 5.83325 9.91667 6.09575 9.91667 6.41659C9.91667 6.73742 9.66 6.99992 9.33333 6.99992Z" fill="#2A47AB"/>
<path d="M4.66659 6.99992C4.33992 6.99992 4.08325 6.73742 4.08325 6.41659C4.08325 6.09575 4.34575 5.83325 4.66659 5.83325C4.98742 5.83325 5.24992 6.09575 5.24992 6.41659C5.24992 6.73742 4.99325 6.99992 4.66659 6.99992Z" fill="#2A47AB"/>
<path d="M11 1L9 3.4H10.8L10.6 5L12.6 2.6H10.8L11 1Z" stroke="#2A47AB" stroke-width="0.5" stroke-linecap="round" stroke-linejoin="round"/>
</svg>
