<svg width="15" height="14" viewBox="0 0 15 14" fill="none" xmlns="http://www.w3.org/2000/svg">
<path d="M7.61849 13.2707C4.16516 13.2707 1.34766 10.459 1.34766 6.99984C1.34766 3.54067 4.16516 0.729004 7.61849 0.729004C11.0718 0.729004 13.8893 3.54067 13.8893 6.99984C13.8893 10.459 11.0777 13.2707 7.61849 13.2707ZM7.61849 1.604C4.64349 1.604 2.22266 4.02484 2.22266 6.99984C2.22266 9.97484 4.64349 12.3957 7.61849 12.3957C10.5935 12.3957 13.0143 9.97484 13.0143 6.99984C13.0143 4.02484 10.5935 1.604 7.61849 1.604Z" fill="white"/>
<path d="M9.95182 7.4375H5.28516C5.04599 7.4375 4.84766 7.23917 4.84766 7C4.84766 6.76083 5.04599 6.5625 5.28516 6.5625H9.95182C10.191 6.5625 10.3893 6.76083 10.3893 7C10.3893 7.23917 10.1968 7.4375 9.95182 7.4375Z" fill="white"/>
</svg>
