<svg width="18" height="19" viewBox="0 0 18 19" fill="none" xmlns="http://www.w3.org/2000/svg">
<path d="M16.2451 8.77398L15.5101 11.909C14.8801 14.6165 13.6351 15.7115 11.2951 15.4865C10.9201 15.4565 10.5151 15.389 10.0801 15.284L8.82013 14.984C5.69263 14.2415 4.72513 12.6965 5.46013 9.56148L6.19513 6.41898C6.34513 5.78148 6.52513 5.22648 6.75013 4.76898C7.62763 2.95398 9.12013 2.46648 11.6251 3.05898L12.8776 3.35148C16.0201 4.08648 16.9801 5.63898 16.2451 8.77398Z" stroke="#2A47AB" stroke-width="1.5" stroke-linecap="round" stroke-linejoin="round"/>
<path opacity="0.4" d="M11.2948 15.4864C10.8298 15.8014 10.2448 16.0639 9.53227 16.2964L8.34727 16.6864C5.36977 17.6464 3.80227 16.8439 2.83477 13.8664L1.87477 10.9039C0.914768 7.92642 1.70977 6.35142 4.68727 5.39142L5.87227 5.00142C6.17977 4.90392 6.47227 4.82142 6.74977 4.76892C6.52477 5.22642 6.34477 5.78142 6.19477 6.41892L5.45977 9.56142C4.72477 12.6964 5.69227 14.2414 8.81977 14.9839L10.0798 15.2839C10.5148 15.3889 10.9198 15.4564 11.2948 15.4864Z" stroke="#2A47AB" stroke-width="1.5" stroke-linecap="round" stroke-linejoin="round"/>
<path opacity="0.4" d="M9.47998 7.34149L13.1175 8.26399" stroke="#2A47AB" stroke-width="1.5" stroke-linecap="round" stroke-linejoin="round"/>
<path opacity="0.4" d="M8.74512 10.244L10.9201 10.799" stroke="#2A47AB" stroke-width="1.5" stroke-linecap="round" stroke-linejoin="round"/>
</svg>
