<svg width="14" height="14" viewBox="0 0 14 14" fill="none" xmlns="http://www.w3.org/2000/svg">
<path d="M5.104 2.04199V1.16699C5.104 0.927826 4.90567 0.729492 4.6665 0.729492C4.42734 0.729492 4.229 0.927826 4.229 1.16699V2.07699C4.37484 2.05949 4.509 2.04199 4.6665 2.04199H5.104Z" fill="#5B6B79"/>
<path d="M9.771 2.07699V1.16699C9.771 0.927826 9.57266 0.729492 9.3335 0.729492C9.09433 0.729492 8.896 0.927826 8.896 1.16699V2.04199H9.3335C9.491 2.04199 9.62516 2.05949 9.771 2.07699Z" fill="#5B6B79"/>
<path d="M9.77083 2.07699V2.91699C9.77083 3.15616 9.5725 3.35449 9.33333 3.35449C9.09417 3.35449 8.89583 3.15616 8.89583 2.91699V2.04199H5.10417V2.91699C5.10417 3.15616 4.90583 3.35449 4.66667 3.35449C4.4275 3.35449 4.22917 3.15616 4.22917 2.91699V2.07699C2.50833 2.23449 1.75 3.34283 1.75 4.95866V9.91699C1.75 11.667 2.625 12.8337 4.66667 12.8337H9.33333C11.375 12.8337 12.25 11.667 12.25 9.91699V4.95866C12.25 3.34283 11.4917 2.23449 9.77083 2.07699ZM7 9.77116H4.66667C4.4275 9.77116 4.22917 9.57283 4.22917 9.33366C4.22917 9.09449 4.4275 8.89616 4.66667 8.89616H7C7.23917 8.89616 7.4375 9.09449 7.4375 9.33366C7.4375 9.57283 7.23917 9.77116 7 9.77116ZM9.33333 6.85449H4.66667C4.4275 6.85449 4.22917 6.65616 4.22917 6.41699C4.22917 6.17783 4.4275 5.97949 4.66667 5.97949H9.33333C9.5725 5.97949 9.77083 6.17783 9.77083 6.41699C9.77083 6.65616 9.5725 6.85449 9.33333 6.85449Z" fill="#5B6B79"/>
</svg>
