<svg width="18" height="19" viewBox="0 0 18 19" fill="none" xmlns="http://www.w3.org/2000/svg">
<path d="M16.2451 8.77401L15.5101 11.909C14.8801 14.6165 13.6351 15.7115 11.2951 15.4865C10.9201 15.4565 10.5151 15.389 10.0801 15.284L8.82013 14.984C5.69263 14.2415 4.72513 12.6965 5.46013 9.56151L6.19513 6.41901C6.34513 5.78151 6.52513 5.22651 6.75013 4.76901C7.62763 2.95401 9.12013 2.46651 11.6251 3.05901L12.8776 3.35151C16.0201 4.08651 16.9801 5.63901 16.2451 8.77401Z" stroke="#292D32" stroke-width="1.5" stroke-linecap="round" stroke-linejoin="round"/>
<path opacity="0.4" d="M11.2957 15.4865C10.8307 15.8015 10.2457 16.064 9.53324 16.2965L8.34824 16.6865C5.37074 17.6465 3.80324 16.844 2.83574 13.8665L1.87574 10.904C0.915744 7.92648 1.71074 6.35148 4.68824 5.39148L5.87324 5.00148C6.18074 4.90398 6.47324 4.82148 6.75074 4.76898C6.52574 5.22648 6.34574 5.78148 6.19574 6.41898L5.46074 9.56148C4.72574 12.6965 5.69324 14.2415 8.82074 14.984L10.0807 15.284C10.5157 15.389 10.9207 15.4565 11.2957 15.4865Z" stroke="#292D32" stroke-width="1.5" stroke-linecap="round" stroke-linejoin="round"/>
<path opacity="0.4" d="M9.48047 7.34152L13.118 8.26402" stroke="#292D32" stroke-width="1.5" stroke-linecap="round" stroke-linejoin="round"/>
<path opacity="0.4" d="M8.74609 10.244L10.9211 10.799" stroke="#292D32" stroke-width="1.5" stroke-linecap="round" stroke-linejoin="round"/>
</svg>
