<svg width="18" height="19" viewBox="0 0 18 19" fill="none" xmlns="http://www.w3.org/2000/svg">
<path d="M9.01494 3.12648C6.53244 3.12648 4.51494 5.14398 4.51494 7.62648V9.79398C4.51494 10.2515 4.31994 10.949 4.08744 11.339L3.22494 12.7715C2.69244 13.6565 3.05994 14.639 4.03494 14.969C7.26744 16.049 10.7549 16.049 13.9874 14.969C14.8949 14.669 15.2924 13.5965 14.7974 12.7715L13.9349 11.339C13.7099 10.949 13.5149 10.2515 13.5149 9.79398V7.62648C13.5149 5.15148 11.4899 3.12648 9.01494 3.12648Z" stroke="#292D32" stroke-width="1.5" stroke-miterlimit="10" stroke-linecap="round"/>
<path d="M10.402 3.344C10.1695 3.2765 9.92945 3.224 9.68195 3.194C8.96195 3.104 8.27195 3.1565 7.62695 3.344C7.84445 2.789 8.38445 2.399 9.01445 2.399C9.64445 2.399 10.1845 2.789 10.402 3.344Z" stroke="#292D32" stroke-width="1.5" stroke-miterlimit="10" stroke-linecap="round" stroke-linejoin="round"/>
<path opacity="0.4" d="M11.2656 15.239C11.2656 16.4765 10.2531 17.489 9.01562 17.489C8.40063 17.489 7.83062 17.234 7.42562 16.829C7.02062 16.424 6.76562 15.854 6.76562 15.239" stroke="#292D32" stroke-width="1.5" stroke-miterlimit="10"/>
</svg>
