<svg width="14" height="14" viewBox="0 0 14 14" fill="none" xmlns="http://www.w3.org/2000/svg">
<path d="M7.58326 6.85414C7.47242 6.85414 7.36159 6.81331 7.27409 6.72581C7.10493 6.55664 7.10493 6.27664 7.27409 6.10747L12.0574 1.32414C12.2266 1.15497 12.5066 1.15497 12.6758 1.32414C12.8449 1.49331 12.8449 1.77331 12.6758 1.94247L7.89242 6.72581C7.80492 6.81331 7.69409 6.85414 7.58326 6.85414Z" fill="#1D2630"/>
<path d="M12.8334 4.404C12.5943 4.404 12.3959 4.20567 12.3959 3.9665V1.604H10.0334C9.79428 1.604 9.59595 1.40567 9.59595 1.1665C9.59595 0.927337 9.79428 0.729004 10.0334 0.729004H12.8334C13.0726 0.729004 13.2709 0.927337 13.2709 1.1665V3.9665C13.2709 4.20567 13.0726 4.404 12.8334 4.404Z" fill="#1D2630"/>
<path d="M8.75008 13.2707H5.25008C2.08258 13.2707 0.729248 11.9173 0.729248 8.74984V5.24984C0.729248 2.08234 2.08258 0.729004 5.25008 0.729004H6.41675C6.65591 0.729004 6.85425 0.927337 6.85425 1.1665C6.85425 1.40567 6.65591 1.604 6.41675 1.604H5.25008C2.56091 1.604 1.60425 2.56067 1.60425 5.24984V8.74984C1.60425 11.439 2.56091 12.3957 5.25008 12.3957H8.75008C11.4392 12.3957 12.3959 11.439 12.3959 8.74984V7.58317C12.3959 7.344 12.5942 7.14567 12.8334 7.14567C13.0726 7.14567 13.2709 7.344 13.2709 7.58317V8.74984C13.2709 11.9173 11.9176 13.2707 8.75008 13.2707Z" fill="#1D2630"/>
</svg>
