<svg width="33" height="41" viewBox="0 0 33 41" fill="none" xmlns="http://www.w3.org/2000/svg">
<g clip-path="url(#clip0_461_103905)">
<path d="M31.9931 10.4882V39.1101C31.9931 39.6098 31.5989 40.0187 31.1171 40.0187H3.2598C2.778 40.0187 2.38379 39.6098 2.38379 39.1101V1.71991C2.38379 1.22016 2.778 0.811279 3.2598 0.811279H21.581C21.6686 0.811279 21.75 0.84373 21.8188 0.902142L31.8805 10.2091C31.9493 10.2805 31.9931 10.3844 31.9931 10.4882Z" fill="white"/>
<path d="M31.117 40.83H3.25973C2.34617 40.83 1.60156 40.0577 1.60156 39.1101V1.71991C1.60156 0.772337 2.34617 0 3.25973 0H21.581C21.8625 0 22.1316 0.103844 22.3381 0.29855L32.3997 9.60553C32.6438 9.8262 32.7814 10.1507 32.7814 10.4882V39.1101C32.7752 40.0577 32.0306 40.83 31.117 40.83ZM3.25973 1.62905C3.20968 1.62905 3.16587 1.67448 3.16587 1.7264V39.1166C3.16587 39.1685 3.20968 39.2139 3.25973 39.2139H31.117C31.1671 39.2139 31.2109 39.1685 31.2109 39.1166V10.6894L21.4183 1.62905H3.25973Z" fill="#CFD1D4"/>
<path d="M31.9935 10.3195H22.2948C21.9757 10.3195 21.7129 10.0534 21.7129 9.71587V0.811279L31.9935 10.3195Z" fill="#F5F5F5"/>
<path d="M31.9935 11.1372H22.2947C21.5439 11.1372 20.9307 10.5011 20.9307 9.72231V0.811232L22.2384 0.207642L32.5191 9.71582L31.9935 11.1372ZM22.5012 9.50813H29.9411L22.5012 2.6285V9.50813Z" fill="#CFD1D4"/>
<path d="M23.471 34.9889H1.77713C1.22649 34.9889 0.782227 34.5281 0.782227 33.9569V24.28C0.782227 23.7089 1.22649 23.248 1.77713 23.248H23.471C24.0216 23.248 24.4659 23.7089 24.4659 24.28V33.9569C24.4659 34.5281 24.0216 34.9889 23.471 34.9889Z" fill="#F54040"/>
<path d="M23.4709 35.8001H1.77706C0.800928 35.8001 0 34.9759 0 33.9569V24.28C0 23.261 0.800928 22.4368 1.77706 22.4368H23.4709C24.4533 22.4368 25.248 23.2675 25.248 24.28V33.9569C25.248 34.9759 24.4533 35.8001 23.4709 35.8001ZM1.77706 24.0593C1.65817 24.0593 1.56431 24.1567 1.56431 24.28V33.9569C1.56431 34.0802 1.65817 34.1776 1.77706 34.1776H23.4709C23.5898 34.1776 23.6837 34.0802 23.6837 33.9569V24.28C23.6837 24.1567 23.5898 24.0593 23.4709 24.0593H1.77706Z" fill="#CF0033"/>
<path d="M6.9082 31.4323V26.292H8.32234C8.48503 26.292 8.62895 26.292 8.75409 26.2985C8.87298 26.305 9.00438 26.3115 9.1483 26.3309C9.29221 26.3439 9.4111 26.3699 9.51122 26.4023C9.61133 26.4348 9.71771 26.4737 9.82408 26.5192C9.93045 26.5646 10.0181 26.6295 10.0869 26.7009C10.1557 26.7723 10.2245 26.8566 10.2809 26.9605C10.3372 27.0578 10.381 27.1747 10.406 27.311C10.431 27.4473 10.4498 27.5965 10.4498 27.7653C10.4498 28.0379 10.406 28.2715 10.3247 28.4662C10.2371 28.6544 10.1119 28.8037 9.94297 28.914C9.77402 29.0244 9.57379 29.1023 9.34227 29.1477C9.11701 29.1931 8.84169 29.2191 8.52883 29.2191H7.7717V31.4323H6.9082ZM7.7717 28.4532H8.51632C8.679 28.4532 8.82292 28.4467 8.93555 28.4273C9.04818 28.4078 9.15455 28.3754 9.25467 28.3299C9.34853 28.2845 9.42362 28.2131 9.47367 28.1157C9.52373 28.0249 9.5425 27.9081 9.5425 27.7718C9.5425 27.6939 9.53625 27.629 9.52373 27.5641C9.51122 27.5057 9.4987 27.4473 9.47993 27.4018C9.46116 27.3564 9.42987 27.3174 9.39233 27.2785C9.35479 27.2461 9.31724 27.2136 9.28596 27.1941C9.25467 27.1747 9.20461 27.1552 9.14204 27.1357C9.07947 27.1227 9.02315 27.1098 8.97935 27.1033C8.93555 27.0968 8.87298 27.0903 8.78538 27.0838C8.69778 27.0773 8.62895 27.0773 8.57889 27.0773C8.52883 27.0773 8.45374 27.0773 8.34737 27.0773H7.76545V28.4532H7.7717Z" fill="white"/>
<path d="M11.3262 31.4323V26.292H12.709C13.6977 26.292 14.4423 26.5127 14.9303 26.9475C15.4184 27.3824 15.6624 28.0119 15.6624 28.8297C15.6624 29.6799 15.4247 30.3224 14.9429 30.7638C14.4611 31.2051 13.7665 31.4258 12.8467 31.4258H11.3262V31.4323ZM12.1897 30.6664H12.8905C13.4912 30.6664 13.948 30.5106 14.2671 30.1991C14.5862 29.8876 14.7489 29.4333 14.7489 28.8297C14.7489 28.2585 14.5862 27.8237 14.2671 27.5186C13.9417 27.2136 13.4536 27.0643 12.7904 27.0643H12.1959V30.6664H12.1897Z" fill="white"/>
<path d="M16.6699 31.4323V26.292H19.6922V27.0643H17.5334V28.4662H19.567V29.2386H17.5334V31.4323H16.6699Z" fill="white"/>
</g>
<defs>
<clipPath id="clip0_461_103905">
<rect width="32.7755" height="40.83" fill="white"/>
</clipPath>
</defs>
</svg>
