<svg width="33" height="42" viewBox="0 0 33 42" fill="none" xmlns="http://www.w3.org/2000/svg">
<g clip-path="url(#clip0_389_226124)">
<path d="M32.2125 10.71V39.528C32.2125 40.0311 31.8156 40.4428 31.3305 40.4428H3.28241C2.7973 40.4428 2.40039 40.0311 2.40039 39.528V1.88165C2.40039 1.37848 2.7973 0.966797 3.28241 0.966797H21.7291C21.8173 0.966797 21.8992 0.99947 21.9685 1.05828L32.0991 10.429C32.1684 10.5009 32.2125 10.6055 32.2125 10.71Z" fill="white"/>
<path d="M31.3304 41.2596H3.28232C2.36251 41.2596 1.61279 40.482 1.61279 39.5279V1.88159C1.61279 0.92753 2.36251 0.149902 3.28232 0.149902H21.7291C22.0126 0.149902 22.2835 0.254457 22.4914 0.450498L32.622 9.82124C32.8677 10.0434 33.0063 10.3702 33.0063 10.71V39.5279C33 40.482 32.2502 41.2596 31.3304 41.2596ZM3.28232 1.79011C3.23192 1.79011 3.18782 1.83585 3.18782 1.88813V39.5345C3.18782 39.5867 3.23192 39.6325 3.28232 39.6325H31.3304C31.3808 39.6325 31.4249 39.5867 31.4249 39.5345V10.9125L21.5653 1.79011H3.28232Z" fill="#CFD1D4"/>
<path d="M32.2125 10.5401H22.4474C22.1261 10.5401 21.8615 10.2722 21.8615 9.93239V0.966797L32.2125 10.5401Z" fill="#F5F5F5"/>
<path d="M32.2125 11.3635H22.4473C21.6913 11.3635 21.0739 10.7231 21.0739 9.93898V0.966857L22.3906 0.359131L32.7417 9.93245L32.2125 11.3635ZM22.6552 9.72334H30.146L22.6552 2.79657V9.72334Z" fill="#CFD1D4"/>
<path d="M23.6317 35.3784H1.78919C1.23478 35.3784 0.787476 34.9144 0.787476 34.3394V24.5961C0.787476 24.0211 1.23478 23.5571 1.78919 23.5571H23.6317C24.1861 23.5571 24.6334 24.0211 24.6334 24.5961V34.3394C24.6334 34.9144 24.1861 35.3784 23.6317 35.3784Z" fill="#FFA55E"/>
<path d="M23.6317 36.1952H1.78923C0.806415 36.1952 0 35.3652 0 34.3393V24.5961C0 23.5701 0.806415 22.7402 1.78923 22.7402H23.6317C24.6208 22.7402 25.421 23.5767 25.421 24.5961V34.3393C25.421 35.3652 24.6208 36.1952 23.6317 36.1952ZM1.78923 24.3739C1.66953 24.3739 1.57503 24.4719 1.57503 24.5961V34.3393C1.57503 34.4635 1.66953 34.5615 1.78923 34.5615H23.6317C23.7514 34.5615 23.8459 34.4635 23.8459 34.3393V24.5961C23.8459 24.4719 23.7514 24.3739 23.6317 24.3739H1.78923V24.3739Z" fill="#FF7205"/>
<path d="M7.27661 31.8432V26.6677H8.70044C8.86424 26.6677 9.00914 26.6677 9.13514 26.6743C9.25485 26.6808 9.38715 26.6873 9.53205 26.7069C9.67695 26.72 9.79666 26.7461 9.89746 26.7788C9.99826 26.8115 10.1054 26.8507 10.2125 26.8964C10.3196 26.9422 10.4078 27.0075 10.4771 27.0794C10.5464 27.1513 10.6157 27.2362 10.6724 27.3408C10.7291 27.4388 10.7732 27.5564 10.7984 27.6937C10.8236 27.8309 10.8425 27.9812 10.8425 28.1511C10.8425 28.4256 10.7984 28.6608 10.7165 28.8568C10.6283 29.0463 10.5023 29.1966 10.3322 29.3077C10.1621 29.4188 9.96046 29.4972 9.72736 29.543C9.50055 29.5887 9.22335 29.6149 8.90834 29.6149H8.14603V31.8432H7.27661V31.8432ZM8.15233 28.8372H8.90204C9.06584 28.8372 9.21075 28.8307 9.32415 28.8111C9.43755 28.7915 9.54465 28.7588 9.64545 28.7131C9.73996 28.6673 9.81556 28.5955 9.86596 28.4974C9.91636 28.406 9.93526 28.2883 9.93526 28.1511C9.93526 28.0727 9.92896 28.0073 9.91636 27.942C9.90376 27.8832 9.89116 27.8244 9.87226 27.7786C9.85336 27.7329 9.82186 27.6937 9.78406 27.6545C9.74626 27.6218 9.70845 27.5891 9.67695 27.5695C9.64545 27.5499 9.60135 27.5303 9.53205 27.5107C9.46905 27.4976 9.41235 27.4846 9.36825 27.478C9.32415 27.4715 9.26115 27.465 9.17295 27.4584C9.08474 27.4519 9.01544 27.4519 8.96504 27.4519C8.91464 27.4519 8.83904 27.4519 8.73194 27.4519H8.14603V28.8372H8.15233Z" fill="white"/>
<path d="M11.7308 31.8432V26.6677H13.1547C13.3185 26.6677 13.4634 26.6677 13.5894 26.6743C13.7091 26.6808 13.8414 26.6873 13.9863 26.7069C14.1312 26.72 14.2509 26.7461 14.3517 26.7788C14.4525 26.8115 14.5596 26.8507 14.6667 26.8964C14.7738 26.9422 14.862 27.0075 14.9313 27.0794C15.0006 27.1513 15.0699 27.2362 15.1266 27.3408C15.1833 27.4388 15.2274 27.5564 15.2526 27.6937C15.2778 27.8309 15.2967 27.9812 15.2967 28.1511C15.2967 28.4256 15.2526 28.6608 15.1707 28.8568C15.0825 29.0463 14.9565 29.1966 14.7864 29.3077C14.6163 29.4188 14.4147 29.4972 14.1816 29.543C13.9548 29.5887 13.6776 29.6149 13.3626 29.6149H12.6003V31.8432H11.7308V31.8432ZM12.6003 28.8372H13.35C13.5138 28.8372 13.6587 28.8307 13.7721 28.8111C13.8855 28.7915 13.9926 28.7588 14.0934 28.7131C14.1879 28.6673 14.2635 28.5955 14.3139 28.4974C14.3643 28.406 14.3832 28.2883 14.3832 28.1511C14.3832 28.0727 14.3769 28.0073 14.3643 27.942C14.3517 27.8832 14.3391 27.8244 14.3202 27.7786C14.3013 27.7329 14.2698 27.6937 14.232 27.6545C14.1942 27.6218 14.1564 27.5891 14.1249 27.5695C14.0934 27.5499 14.043 27.5303 13.98 27.5107C13.917 27.4976 13.8603 27.4846 13.8162 27.478C13.7721 27.4715 13.7091 27.465 13.6209 27.4584C13.5327 27.4519 13.4634 27.4519 13.413 27.4519C13.3626 27.4519 13.287 27.4519 13.1799 27.4519H12.6003V28.8372Z" fill="white"/>
<path d="M17.1047 31.8432V27.4454H15.5675V26.6677H19.5366V27.4454H17.9741V31.8432H17.1047Z" fill="white"/>
</g>
<defs>
<clipPath id="clip0_389_226124">
<rect width="33" height="41.1097" fill="white" transform="translate(0 0.149902)"/>
</clipPath>
</defs>
</svg>
