<svg width="20" height="20" viewBox="0 0 20 20" fill="none" xmlns="http://www.w3.org/2000/svg">
<path opacity="0.4" d="M17.5 5.83317V14.1665C17.5 16.6665 16.25 18.3332 13.3333 18.3332H6.66667C3.75 18.3332 2.5 16.6665 2.5 14.1665V5.83317C2.5 3.33317 3.75 1.6665 6.66667 1.6665H13.3333C16.25 1.6665 17.5 3.33317 17.5 5.83317Z" fill="#5B6B79"/>
<path d="M15.4154 7.70833H13.7487C12.482 7.70833 11.457 6.68333 11.457 5.41667V3.75C11.457 3.40833 11.7404 3.125 12.082 3.125C12.4237 3.125 12.707 3.40833 12.707 3.75V5.41667C12.707 5.99167 13.1737 6.45833 13.7487 6.45833H15.4154C15.757 6.45833 16.0404 6.74167 16.0404 7.08333C16.0404 7.425 15.757 7.70833 15.4154 7.70833Z" fill="#5B6B79"/>
<path d="M10.0013 11.4585H6.66797C6.3263 11.4585 6.04297 11.1752 6.04297 10.8335C6.04297 10.4918 6.3263 10.2085 6.66797 10.2085H10.0013C10.343 10.2085 10.6263 10.4918 10.6263 10.8335C10.6263 11.1752 10.343 11.4585 10.0013 11.4585Z" fill="#5B6B79"/>
<path d="M13.3346 14.7915H6.66797C6.3263 14.7915 6.04297 14.5082 6.04297 14.1665C6.04297 13.8248 6.3263 13.5415 6.66797 13.5415H13.3346C13.6763 13.5415 13.9596 13.8248 13.9596 14.1665C13.9596 14.5082 13.6763 14.7915 13.3346 14.7915Z" fill="#5B6B79"/>
</svg>
