<svg width="14" height="14" viewBox="0 0 14 14" fill="none" xmlns="http://www.w3.org/2000/svg">
<path d="M9.33333 1.16699H4.66667C2.625 1.16699 1.75 2.33366 1.75 4.08366V9.91699C1.75 11.667 2.625 12.8337 4.66667 12.8337H9.33333C11.375 12.8337 12.25 11.667 12.25 9.91699V4.08366C12.25 2.33366 11.375 1.16699 9.33333 1.16699ZM4.66667 7.14616H7C7.23917 7.14616 7.4375 7.34449 7.4375 7.58366C7.4375 7.82283 7.23917 8.02116 7 8.02116H4.66667C4.4275 8.02116 4.22917 7.82283 4.22917 7.58366C4.22917 7.34449 4.4275 7.14616 4.66667 7.14616ZM9.33333 10.3545H4.66667C4.4275 10.3545 4.22917 10.1562 4.22917 9.91699C4.22917 9.67783 4.4275 9.47949 4.66667 9.47949H9.33333C9.5725 9.47949 9.77083 9.67783 9.77083 9.91699C9.77083 10.1562 9.5725 10.3545 9.33333 10.3545ZM10.7917 5.39616H9.625C8.73833 5.39616 8.02083 4.67866 8.02083 3.79199V2.62533C8.02083 2.38616 8.21917 2.18783 8.45833 2.18783C8.6975 2.18783 8.89583 2.38616 8.89583 2.62533V3.79199C8.89583 4.19449 9.2225 4.52116 9.625 4.52116H10.7917C11.0308 4.52116 11.2292 4.71949 11.2292 4.95866C11.2292 5.19783 11.0308 5.39616 10.7917 5.39616Z" fill="#5B6B79"/>
</svg>
