<svg width="18" height="18" viewBox="0 0 18 18" fill="none" xmlns="http://www.w3.org/2000/svg">
<path d="M12.315 5.96234C14.145 7.79234 14.145 10.7623 12.315 12.5923C10.485 14.4223 7.515 14.4223 5.685 12.5923C3.855 10.7623 3.855 7.79234 5.685 5.96234C7.515 4.13234 10.485 4.13234 12.315 5.96234Z" stroke="#292D32" stroke-width="1.5" stroke-linecap="round" stroke-linejoin="round"/>
<path opacity="0.4" d="M6.1875 16.2302C4.6875 15.6302 3.37499 14.5427 2.50499 13.0352C1.64999 11.5577 1.36499 9.91516 1.56749 8.34766" stroke="#292D32" stroke-width="1.5" stroke-linecap="round" stroke-linejoin="round"/>
<path opacity="0.4" d="M4.38751 3.35953C5.66251 2.36203 7.26001 1.76953 9.00001 1.76953C10.7025 1.76953 12.27 2.34702 13.53 3.30702" stroke="#292D32" stroke-width="1.5" stroke-linecap="round" stroke-linejoin="round"/>
<path opacity="0.4" d="M11.8125 16.2302C13.3125 15.6302 14.625 14.5427 15.495 13.0352C16.35 11.5577 16.635 9.91516 16.4325 8.34766" stroke="#292D32" stroke-width="1.5" stroke-linecap="round" stroke-linejoin="round"/>
</svg>
