<svg width="14" height="14" viewBox="0 0 12 12" fill="none" xmlns="http://www.w3.org/2000/svg">
<path d="M10.5 2.98975C8.835 2.82475 7.16 2.73975 5.49 2.73975C4.5 2.73975 3.51 2.78975 2.52 2.88975L1.5 2.98975" stroke="#FF6464" stroke-linecap="round" stroke-linejoin="round"/>
<path opacity="0.34" d="M4.25 2.48451L4.36 1.82951C4.44 1.35451 4.5 0.999512 5.345 0.999512H6.655C7.5 0.999512 7.565 1.37451 7.64 1.83451L7.75 2.48451" stroke="#FF6464" stroke-linecap="round" stroke-linejoin="round"/>
<path d="M9.42422 4.57031L9.09922 9.60531C9.04422 10.3903 8.99922 11.0003 7.60422 11.0003H4.39422C2.99922 11.0003 2.95422 10.3903 2.89922 9.60531L2.57422 4.57031" stroke="#FF6464" stroke-linecap="round" stroke-linejoin="round"/>
<path opacity="0.34" d="M5.16406 8.25H6.82906" stroke="#FF6464" stroke-linecap="round" stroke-linejoin="round"/>
<path opacity="0.34" d="M4.75 6.24951H7.25" stroke="#FF6464" stroke-linecap="round" stroke-linejoin="round"/>
</svg>
