<svg width="16" height="16" viewBox="0 0 16 16" fill="none" xmlns="http://www.w3.org/2000/svg">
<path d="M2.20146 15.1664C1.96146 15.1664 1.72812 15.1064 1.52812 14.9864C1.08145 14.7264 0.828125 14.2064 0.828125 13.5598V5.98643C0.828125 4.56643 1.98145 3.41309 3.40145 3.41309H8.58813C10.0081 3.41309 11.1615 4.56643 11.1615 5.98643V13.5598C11.1615 14.2064 10.9081 14.7198 10.4615 14.9864C10.0148 15.2464 9.44146 15.2197 8.8748 14.9064L6.2548 13.4464C6.12813 13.3731 5.86145 13.3731 5.73478 13.4464L3.11479 14.9064C2.80812 15.0797 2.49479 15.1664 2.20146 15.1664ZM3.40812 4.41976C2.54146 4.41976 1.8348 5.12642 1.8348 5.99308V13.5664C1.8348 13.8398 1.9148 14.0531 2.04146 14.1264C2.16813 14.1998 2.39481 14.1664 2.63481 14.0331L5.2548 12.5731C5.68147 12.3397 6.32146 12.3397 6.74813 12.5731L9.36812 14.0331C9.60812 14.1664 9.82813 14.1998 9.96147 14.1264C10.0881 14.0531 10.1681 13.8398 10.1681 13.5664V5.99308C10.1681 5.12642 9.46147 4.41976 8.59481 4.41976H3.40812Z" fill="#1E1E1E"/>
<path d="M9.79203 15.1667C9.4987 15.1667 9.19204 15.0801 8.8787 14.9134L6.25871 13.4534C6.13204 13.3867 5.85868 13.3867 5.73202 13.4534L3.11869 14.9134C2.55203 15.2267 1.97202 15.2534 1.53202 14.9934C1.08536 14.7334 0.832031 14.2134 0.832031 13.5734V6.00008C0.832031 4.58008 1.98535 3.42676 3.40535 3.42676H8.59204C10.012 3.42676 11.1654 4.58008 11.1654 6.00008V13.5734C11.1654 14.2134 10.912 14.7334 10.4654 14.9934C10.2654 15.1067 10.0387 15.1667 9.79203 15.1667ZM5.9987 12.4001C6.26536 12.4001 6.52536 12.4601 6.74536 12.5801L9.36536 14.0401C9.60536 14.1734 9.83203 14.2067 9.9587 14.1267C10.0854 14.0534 10.1654 13.8401 10.1654 13.5668V5.99341C10.1654 5.12674 9.45871 4.42008 8.59204 4.42008H3.40535C2.53869 4.42008 1.83203 5.12674 1.83203 5.99341V13.5668C1.83203 13.8401 1.91203 14.0534 2.0387 14.1267C2.16536 14.2001 2.39204 14.1667 2.63204 14.0334L5.25203 12.5734C5.46537 12.4601 5.73203 12.4001 5.9987 12.4001Z" fill="#1E1E1E"/>
<path d="M13.792 12.58C13.4987 12.58 13.192 12.4933 12.8787 12.3266L10.4187 10.9533C10.2587 10.8666 10.1654 10.7 10.1654 10.52V5.99996C10.1654 5.13329 9.45871 4.42664 8.59204 4.42664H5.33203C5.0587 4.42664 4.83203 4.19997 4.83203 3.92664V3.41329C4.83203 1.99329 5.98535 0.839966 7.40535 0.839966H12.592C14.012 0.839966 15.1654 1.99329 15.1654 3.41329V10.9866C15.1654 11.6266 14.912 12.1466 14.4654 12.4066C14.2654 12.5199 14.0387 12.58 13.792 12.58ZM11.1654 10.22L13.3654 11.4533C13.6054 11.5866 13.8254 11.62 13.9587 11.54C14.092 11.46 14.1654 11.2533 14.1654 10.98V3.40662C14.1654 2.53995 13.4587 1.83329 12.592 1.83329H7.40535C6.53869 1.83329 5.83203 2.53995 5.83203 3.40662V3.41996H8.59204C10.012 3.41996 11.1654 4.57329 11.1654 5.99329V10.22Z" fill="#1E1E1E"/>
</svg>
