<svg width="18" height="19" viewBox="0 0 18 19" fill="none" xmlns="http://www.w3.org/2000/svg">
<path d="M16.5 9.94397C16.5 5.80397 13.14 2.44397 9 2.44397C4.86 2.44397 1.5 5.80397 1.5 9.94397C1.5 14.084 4.86 17.444 9 17.444" stroke="#353535" stroke-linecap="round" stroke-linejoin="round"/>
<g opacity="0.4">
<path d="M5.99971 3.19397H6.74971C5.28721 7.57397 5.28721 12.314 6.74971 16.694H5.99971" fill="#353535"/>
<path d="M5.99971 3.19397H6.74971C5.28721 7.57397 5.28721 12.314 6.74971 16.694H5.99971" stroke="#353535" stroke-linecap="round" stroke-linejoin="round"/>
<path d="M11.25 3.19397C11.9775 5.38397 12.345 7.66397 12.345 9.94397L11.25 3.19397Z" fill="#353535"/>
<path d="M11.25 3.19397C11.9775 5.38397 12.345 7.66397 12.345 9.94397" stroke="#353535" stroke-width="1.5" stroke-linecap="round" stroke-linejoin="round"/>
<path d="M2.25 12.944V12.194C4.44 12.9215 6.72 13.289 9 13.289" fill="#353535"/>
<path d="M2.25 12.944V12.194C4.44 12.9215 6.72 13.289 9 13.289" stroke="#353535" stroke-width="1.5" stroke-linecap="round" stroke-linejoin="round"/>
<path d="M2.25 7.69404C6.63 6.23154 11.37 6.23154 15.75 7.69404H2.25Z" fill="#353535"/>
<path d="M2.25 7.69404C6.63 6.23154 11.37 6.23154 15.75 7.69404" stroke="#353535" stroke-width="1.5" stroke-linecap="round" stroke-linejoin="round"/>
</g>
<path d="M13.65 16.994C14.9755 16.994 16.05 15.9195 16.05 14.594C16.05 13.2685 14.9755 12.194 13.65 12.194C12.3245 12.194 11.25 13.2685 11.25 14.594C11.25 15.9195 12.3245 16.994 13.65 16.994Z" stroke="#353535" stroke-width="1.5" stroke-linecap="round" stroke-linejoin="round"/>
<path d="M16.5 17.444L15.75 16.694" stroke="#353535" stroke-width="1.5" stroke-linecap="round" stroke-linejoin="round"/>
</svg>
