<svg width="38" height="38" viewBox="0 0 38 38" fill="none" xmlns="http://www.w3.org/2000/svg">
<rect width="38" height="38" rx="6" fill="#2A47AB"/>
<g clip-path="url(#clip0_405_90826)">
<path opacity="0.4" d="M16.7175 11.8775L24.5642 15.8008C28.0842 17.5608 28.0842 20.4392 24.5642 22.1992L16.7175 26.1225C11.4375 28.7625 9.28333 26.5992 11.9233 21.3283L12.7208 19.7425C12.95 19.275 12.95 18.7342 12.7208 18.2667L11.9233 16.6717C9.28333 11.4008 11.4467 9.2375 16.7175 11.8775Z" fill="white"/>
<path d="M21.6033 19.6875H16.6533C16.2775 19.6875 15.9658 19.3758 15.9658 19C15.9658 18.6242 16.2775 18.3125 16.6533 18.3125H21.6033C21.9792 18.3125 22.2908 18.6242 22.2908 19C22.2908 19.3758 21.9792 19.6875 21.6033 19.6875Z" fill="white"/>
</g>
<defs>
<clipPath id="clip0_405_90826">
<rect width="22" height="22" fill="white" transform="translate(8 8)"/>
</clipPath>
</defs>
</svg>
