<svg width="18" height="19" viewBox="0 0 18 19" fill="none" xmlns="http://www.w3.org/2000/svg">
<path opacity="0.34" d="M9 12.194C10.2426 12.194 11.25 11.1866 11.25 9.944C11.25 8.70136 10.2426 7.694 9 7.694C7.75736 7.694 6.75 8.70136 6.75 9.944C6.75 11.1866 7.75736 12.194 9 12.194Z" stroke="#292D32" stroke-width="1.5" stroke-miterlimit="10" stroke-linecap="round" stroke-linejoin="round"/>
<path d="M1.5 10.604V9.284C1.5 8.504 2.1375 7.859 2.925 7.859C4.2825 7.859 4.8375 6.899 4.155 5.7215C3.765 5.0465 3.9975 4.169 4.68 3.779L5.9775 3.0365C6.57 2.684 7.335 2.894 7.6875 3.4865L7.77 3.629C8.445 4.8065 9.555 4.8065 10.2375 3.629L10.32 3.4865C10.6725 2.894 11.4375 2.684 12.03 3.0365L13.3275 3.779C14.01 4.169 14.2425 5.0465 13.8525 5.7215C13.17 6.899 13.725 7.859 15.0825 7.859C15.8625 7.859 16.5075 8.4965 16.5075 9.284V10.604C16.5075 11.384 15.87 12.029 15.0825 12.029C13.725 12.029 13.17 12.989 13.8525 14.1665C14.2425 14.849 14.01 15.719 13.3275 16.109L12.03 16.8515C11.4375 17.204 10.6725 16.994 10.32 16.4015L10.2375 16.259C9.5625 15.0815 8.4525 15.0815 7.77 16.259L7.6875 16.4015C7.335 16.994 6.57 17.204 5.9775 16.8515L4.68 16.109C3.9975 15.719 3.765 14.8415 4.155 14.1665C4.8375 12.989 4.2825 12.029 2.925 12.029C2.1375 12.029 1.5 11.384 1.5 10.604Z" stroke="#292D32" stroke-width="1.5" stroke-miterlimit="10" stroke-linecap="round" stroke-linejoin="round"/>
</svg>
