<svg width="36" height="37" viewBox="0 0 36 37" fill="none" xmlns="http://www.w3.org/2000/svg">
<rect y="0.333252" width="36" height="36" rx="8" fill="#2A47AB"/>
<path d="M16.3332 13.3333H19.6665C21.3332 13.3333 21.3332 12.4999 21.3332 11.6666C21.3332 9.99994 20.4998 9.99994 19.6665 9.99994H16.3332C15.4998 9.99994 14.6665 9.99994 14.6665 11.6666C14.6665 13.3333 15.4998 13.3333 16.3332 13.3333Z" fill="white" stroke="white" stroke-width="1.5" stroke-miterlimit="10" stroke-linecap="round" stroke-linejoin="round"/>
<g opacity="0.4">
<path d="M21.3333 11.6832C24.1083 11.8332 25.5 12.8582 25.5 16.6666V21.6666C25.5 24.9999 24.6667 26.6666 20.5 26.6666H15.5C11.3333 26.6666 10.5 24.9999 10.5 21.6666V16.6666C10.5 12.8666 11.8917 11.8332 14.6667 11.6832" fill="white"/>
<path d="M21.3333 11.6832C24.1083 11.8332 25.5 12.8582 25.5 16.6666V21.6666C25.5 24.9999 24.6667 26.6666 20.5 26.6666H15.5C11.3333 26.6666 10.5 24.9999 10.5 21.6666V16.6666C10.5 12.8666 11.8917 11.8332 14.6667 11.6832" stroke="white" stroke-width="1.5" stroke-miterlimit="10" stroke-linecap="round" stroke-linejoin="round"/>
</g>
</svg>
