<svg width="36" height="37" viewBox="0 0 36 37" fill="none" xmlns="http://www.w3.org/2000/svg">
<rect y="0.521973" width="36" height="36" rx="8" fill="#2A47AB"/>
<path opacity="0.4" d="M26.05 17.222L25.2333 20.7053C24.5333 23.7136 23.15 24.9303 20.55 24.6803C20.1333 24.647 19.6833 24.572 19.2 24.4553L17.8 24.122C14.325 23.297 13.25 21.5803 14.0667 18.097L14.8833 14.6053C15.05 13.897 15.25 13.2803 15.5 12.772C16.475 10.7553 18.1333 10.2136 20.9167 10.872L22.3083 11.197C25.8 12.0136 26.8667 13.7386 26.05 17.222Z" fill="white"/>
<path d="M20.55 24.6803C20.0334 25.0303 19.3834 25.322 18.5917 25.5803L17.275 26.0136C13.9667 27.0803 12.225 26.1886 11.15 22.8803L10.0834 19.5886C9.01671 16.2803 9.90004 14.5303 13.2084 13.4636L14.525 13.0303C14.8667 12.922 15.1917 12.8303 15.5 12.772C15.25 13.2803 15.05 13.897 14.8834 14.6053L14.0667 18.097C13.25 21.5803 14.325 23.297 17.8 24.122L19.2 24.4553C19.6834 24.572 20.1334 24.647 20.55 24.6803Z" fill="white"/>
<path d="M22.5749 17.2803C22.5249 17.2803 22.4749 17.272 22.4166 17.2636L18.3749 16.2386C18.0416 16.1553 17.8416 15.8136 17.9249 15.4803C18.0082 15.147 18.3499 14.947 18.6832 15.0303L22.7249 16.0553C23.0582 16.1386 23.2582 16.4803 23.1749 16.8136C23.1082 17.0886 22.8499 17.2803 22.5749 17.2803Z" fill="white"/>
<path d="M20.1333 20.0969C20.0833 20.0969 20.0333 20.0886 19.9749 20.0803L17.5499 19.4636C17.2166 19.3803 17.0166 19.0386 17.0999 18.7053C17.1833 18.3719 17.5249 18.1719 17.8583 18.2553L20.2833 18.8719C20.6166 18.9553 20.8166 19.2969 20.7333 19.6303C20.6666 19.9136 20.4166 20.0969 20.1333 20.0969Z" fill="white"/>
</svg>
