<svg width="36" height="36" viewBox="0 0 36 36" fill="none" xmlns="http://www.w3.org/2000/svg">
<rect x="0.5" y="0.5" width="35" height="35" rx="7.5" fill="white"/>
<path d="M25.5667 15.1501V20.8501C25.5667 21.7834 25.0667 22.6501 24.2584 23.1251L19.3084 25.9834C18.5 26.4501 17.5 26.4501 16.6834 25.9834L11.7334 23.1251C10.925 22.6584 10.425 21.7917 10.425 20.8501V15.1501C10.425 14.2168 10.925 13.3501 11.7334 12.8751L16.6834 10.0167C17.4917 9.55008 18.4917 9.55008 19.3084 10.0167L24.2584 12.8751C25.0667 13.3501 25.5667 14.2084 25.5667 15.1501Z" fill="#BDC4C9" stroke="#BDC4C9" stroke-width="1.5" stroke-linecap="round" stroke-linejoin="round"/>
<path d="M18 17.1668C19.0724 17.1668 19.9417 16.2974 19.9417 15.2251C19.9417 14.1527 19.0724 13.2834 18 13.2834C16.9277 13.2834 16.0583 14.1527 16.0583 15.2251C16.0583 16.2974 16.9277 17.1668 18 17.1668Z" fill="#5B6B79" stroke="#5B6B79" stroke-width="1.5" stroke-linecap="round" stroke-linejoin="round"/>
<path d="M21.3334 21.8867C21.3334 20.3849 19.8417 19.1667 18.0001 19.1667C16.1584 19.1667 14.6667 20.3849 14.6667 21.8867" fill="#5B6B79"/>
<path d="M21.3334 21.8867C21.3334 20.3849 19.8417 19.1667 18.0001 19.1667C16.1584 19.1667 14.6667 20.3849 14.6667 21.8867" stroke="#5B6B79" stroke-width="1.5" stroke-linecap="round" stroke-linejoin="round"/>
<rect x="0.5" y="0.5" width="35" height="35" rx="7.5" stroke="#F5F5F5"/>
</svg>
