<svg width="36" height="37" viewBox="0 0 36 37" fill="none" xmlns="http://www.w3.org/2000/svg">
<rect y="0.34259" width="36" height="36" rx="8" fill="#2A47AB"/>
<path d="M25.5 15.4258V22.5091C25.5 25.0091 24.25 26.6758 21.3333 26.6758H14.6667C11.75 26.6758 10.5 25.0091 10.5 22.5091V15.4258C10.5 12.9258 11.75 11.2591 14.6667 11.2591H21.3333C24.25 11.2591 25.5 12.9258 25.5 15.4258Z" fill="#90B3FF" stroke="#90B3FF" stroke-width="1.5" stroke-miterlimit="10" stroke-linecap="round" stroke-linejoin="round"/>
<path d="M14.668 10.0091V12.5091" stroke="white" stroke-width="1.5" stroke-miterlimit="10" stroke-linecap="round" stroke-linejoin="round"/>
<path d="M21.332 10.0091V12.5091" stroke="white" stroke-width="1.5" stroke-miterlimit="10" stroke-linecap="round" stroke-linejoin="round"/>
<path d="M10.918 15.9173H25.0846" stroke="white" stroke-width="1.5" stroke-miterlimit="10" stroke-linecap="round" stroke-linejoin="round"/>
<path d="M21.0781 19.7593H21.0856" stroke="white" stroke-width="2" stroke-linecap="round" stroke-linejoin="round"/>
<path d="M21.0781 22.2593H21.0856" stroke="white" stroke-width="2" stroke-linecap="round" stroke-linejoin="round"/>
<path d="M17.9951 19.7593H18.0026" stroke="white" stroke-width="2" stroke-linecap="round" stroke-linejoin="round"/>
<path d="M17.9951 22.2593H18.0026" stroke="white" stroke-width="2" stroke-linecap="round" stroke-linejoin="round"/>
<path d="M14.9131 19.7593H14.9206" stroke="white" stroke-width="2" stroke-linecap="round" stroke-linejoin="round"/>
<path d="M14.9111 22.2596H14.9186" stroke="white" stroke-width="2" stroke-linecap="round" stroke-linejoin="round"/>
</svg>
