<svg width="36" height="36" viewBox="0 0 36 36" fill="none" xmlns="http://www.w3.org/2000/svg">
<rect x="0.5" y="0.5" width="35" height="35" rx="7.5" fill="white"/>
<path d="M16.3334 13H19.6667C21.3334 13 21.3334 12.1666 21.3334 11.3333C21.3334 9.66663 20.5001 9.66663 19.6667 9.66663H16.3334C15.5001 9.66663 14.6667 9.66663 14.6667 11.3333C14.6667 13 15.5001 13 16.3334 13Z" fill="#5B6B79" stroke="#5B6B79" stroke-width="1.5" stroke-miterlimit="10" stroke-linecap="round" stroke-linejoin="round"/>
<g opacity="0.4">
<path d="M21.3333 11.35C24.1083 11.5 25.5 12.525 25.5 16.3333V21.3333C25.5 24.6666 24.6667 26.3333 20.5 26.3333H15.5C11.3333 26.3333 10.5 24.6666 10.5 21.3333V16.3333C10.5 12.5333 11.8917 11.5 14.6667 11.35" fill="#5B6B79"/>
<path d="M21.3333 11.35C24.1083 11.5 25.5 12.525 25.5 16.3333V21.3333C25.5 24.6666 24.6667 26.3333 20.5 26.3333H15.5C11.3333 26.3333 10.5 24.6666 10.5 21.3333V16.3333C10.5 12.5333 11.8917 11.5 14.6667 11.35" stroke="#5B6B79" stroke-width="1.5" stroke-miterlimit="10" stroke-linecap="round" stroke-linejoin="round"/>
</g>
<rect x="0.5" y="0.5" width="35" height="35" rx="7.5" stroke="#F5F5F5"/>
</svg>
