<svg width="36" height="36" viewBox="0 0 36 36" fill="none" xmlns="http://www.w3.org/2000/svg">
<rect width="36" height="36" rx="8" fill="#2A47AB"/>
<path d="M25.5665 15.15V20.85C25.5665 21.7834 25.0665 22.6501 24.2581 23.1251L19.3081 25.9834C18.4998 26.45 17.4998 26.45 16.6831 25.9834L11.7331 23.1251C10.9248 22.6584 10.4248 21.7917 10.4248 20.85V15.15C10.4248 14.2167 10.9248 13.35 11.7331 12.875L16.6831 10.0167C17.4915 9.55002 18.4915 9.55002 19.3081 10.0167L24.2581 12.875C25.0665 13.35 25.5665 14.2084 25.5665 15.15Z" fill="#90B3FF" stroke="#90B3FF" stroke-width="1.5" stroke-linecap="round" stroke-linejoin="round"/>
<path d="M18.0003 17.1666C19.0726 17.1666 19.9419 16.2973 19.9419 15.225C19.9419 14.1526 19.0726 13.2833 18.0003 13.2833C16.9279 13.2833 16.0586 14.1526 16.0586 15.225C16.0586 16.2973 16.9279 17.1666 18.0003 17.1666Z" fill="white" stroke="white" stroke-width="1.5" stroke-linecap="round" stroke-linejoin="round"/>
<path d="M21.3337 21.8867C21.3337 20.3848 19.842 19.1667 18.0003 19.1667C16.1587 19.1667 14.667 20.3848 14.667 21.8867" fill="white"/>
<path d="M21.3337 21.8867C21.3337 20.3848 19.842 19.1667 18.0003 19.1667C16.1587 19.1667 14.667 20.3848 14.667 21.8867" stroke="white" stroke-width="1.5" stroke-linecap="round" stroke-linejoin="round"/>
</svg>
