<svg width="14" height="14" viewBox="0 0 14 14" fill="none" xmlns="http://www.w3.org/2000/svg">
<path d="M9.33333 13.2709H4.66667C2.5375 13.2709 1.3125 12.0459 1.3125 9.91675V4.08341C1.3125 1.95425 2.5375 0.729248 4.66667 0.729248H9.33333C11.4625 0.729248 12.6875 1.95425 12.6875 4.08341V9.91675C12.6875 12.0459 11.4625 13.2709 9.33333 13.2709ZM4.66667 1.60425C2.99833 1.60425 2.1875 2.41508 2.1875 4.08341V9.91675C2.1875 11.5851 2.99833 12.3959 4.66667 12.3959H9.33333C11.0017 12.3959 11.8125 11.5851 11.8125 9.91675V4.08341C11.8125 2.41508 11.0017 1.60425 9.33333 1.60425H4.66667Z" fill="#1E1E1E"/>
<path d="M10.7917 5.39583H9.62501C8.73834 5.39583 8.02084 4.67833 8.02084 3.79167V2.625C8.02084 2.38583 8.21918 2.1875 8.45834 2.1875C8.69751 2.1875 8.89584 2.38583 8.89584 2.625V3.79167C8.89584 4.19417 9.22251 4.52083 9.62501 4.52083H10.7917C11.0308 4.52083 11.2292 4.71917 11.2292 4.95833C11.2292 5.1975 11.0308 5.39583 10.7917 5.39583Z" fill="#1E1E1E"/>
<path d="M5.13917 10.4708C5.02833 10.4708 4.9175 10.43 4.83 10.3425L3.955 9.46746C3.78583 9.29829 3.78583 9.01829 3.955 8.84912C4.12417 8.67996 4.40417 8.67996 4.57333 8.84912L5.13917 9.41496L7.16333 7.39079C7.3325 7.22162 7.6125 7.22162 7.78167 7.39079C7.95083 7.55996 7.95083 7.83996 7.78167 8.00912L5.44833 10.3425C5.36667 10.43 5.25 10.4708 5.13917 10.4708Z" fill="#1E1E1E"/>
</svg>
