<svg width="14" height="14" viewBox="0 0 14 14" fill="none" xmlns="http://www.w3.org/2000/svg">
<path d="M9.44401 1.16699H4.55567C2.43234 1.16699 1.1665 2.43283 1.1665 4.55616V9.44449C1.1665 11.5678 2.43234 12.8337 4.55567 12.8337H9.44401C11.5673 12.8337 12.8332 11.5678 12.8332 9.44449V4.55616C12.8332 2.43283 11.5673 1.16699 9.44401 1.16699ZM5.81567 8.69199L4.50317 10.0045C4.41567 10.092 4.30484 10.1328 4.194 10.1328C4.08317 10.1328 3.9665 10.092 3.88484 10.0045L3.44734 9.56699C3.27234 9.39783 3.27234 9.11783 3.44734 8.94866C3.6165 8.77949 3.89067 8.77949 4.06567 8.94866L4.194 9.07699L5.19734 8.07366C5.3665 7.90449 5.64067 7.90449 5.81567 8.07366C5.98484 8.24283 5.98484 8.52283 5.81567 8.69199ZM5.81567 4.60866L4.50317 5.92116C4.41567 6.00866 4.30484 6.04949 4.194 6.04949C4.08317 6.04949 3.9665 6.00866 3.88484 5.92116L3.44734 5.48366C3.27234 5.31449 3.27234 5.03449 3.44734 4.86533C3.6165 4.69616 3.89067 4.69616 4.06567 4.86533L4.194 4.99366L5.19734 3.99033C5.3665 3.82116 5.64067 3.82116 5.81567 3.99033C5.98484 4.15949 5.98484 4.43949 5.81567 4.60866ZM10.2432 9.69533H7.18067C6.9415 9.69533 6.74317 9.49699 6.74317 9.25783C6.74317 9.01866 6.9415 8.82033 7.18067 8.82033H10.2432C10.4882 8.82033 10.6807 9.01866 10.6807 9.25783C10.6807 9.49699 10.4882 9.69533 10.2432 9.69533ZM10.2432 5.61199H7.18067C6.9415 5.61199 6.74317 5.41366 6.74317 5.17449C6.74317 4.93533 6.9415 4.73699 7.18067 4.73699H10.2432C10.4882 4.73699 10.6807 4.93533 10.6807 5.17449C10.6807 5.41366 10.4882 5.61199 10.2432 5.61199Z" fill="#5B6B79"/>
</svg>
