<svg width="16" height="16" viewBox="0 0 16 16" fill="none" xmlns="http://www.w3.org/2000/svg">
<path opacity="0.4" d="M11.352 0H4.648C1.736 0 0 1.736 0 4.648V11.352C0 14.264 1.736 16 4.648 16H11.352C14.264 16 16 14.264 16 11.352V4.648C16 1.736 14.264 0 11.352 0Z" fill="#5B6B79"/>
<path d="M13.0016 3.9999C13.0016 4.3279 12.7376 4.5999 12.4016 4.5999H8.20156C7.87356 4.5999 7.60156 4.3279 7.60156 3.9999C7.60156 3.6719 7.87356 3.3999 8.20156 3.3999H12.4016C12.7376 3.3999 13.0016 3.6719 13.0016 3.9999Z" fill="#5B6B79"/>
<path d="M13.0016 7.9999C13.0016 8.3279 12.7376 8.5999 12.4016 8.5999H8.20156C7.87356 8.5999 7.60156 8.3279 7.60156 7.9999C7.60156 7.6719 7.87356 7.3999 8.20156 7.3999H12.4016C12.7376 7.3999 13.0016 7.6719 13.0016 7.9999Z" fill="#5B6B79"/>
<circle cx="3.8" cy="8.0002" r="0.8" fill="#5B6B79"/>
<circle cx="3.8" cy="12.0002" r="0.8" fill="#5B6B79"/>
<circle cx="3.8" cy="4.0002" r="0.8" fill="#5B6B79"/>
<path d="M13.0016 11.9999C13.0016 12.3279 12.7376 12.5999 12.4016 12.5999H8.20156C7.87356 12.5999 7.60156 12.3279 7.60156 11.9999C7.60156 11.6719 7.87356 11.3999 8.20156 11.3999H12.4016C12.7376 11.3999 13.0016 11.6719 13.0016 11.9999Z" fill="#5B6B79"/>
</svg>
