<svg width="14" height="14" viewBox="0 0 14 14" fill="none" xmlns="http://www.w3.org/2000/svg">
<path d="M12.25 3.0625H1.75C1.51083 3.0625 1.3125 2.86417 1.3125 2.625C1.3125 2.38583 1.51083 2.1875 1.75 2.1875H12.25C12.4892 2.1875 12.6875 2.38583 12.6875 2.625C12.6875 2.86417 12.4892 3.0625 12.25 3.0625Z" fill="#5B6B79"/>
<path d="M7.27417 5.97949H1.75C1.51083 5.97949 1.3125 5.78116 1.3125 5.54199C1.3125 5.30283 1.51083 5.10449 1.75 5.10449H7.27417C7.51333 5.10449 7.71167 5.30283 7.71167 5.54199C7.71167 5.78116 7.51917 5.97949 7.27417 5.97949Z" fill="#5B6B79"/>
<path d="M12.25 8.89551H1.75C1.51083 8.89551 1.3125 8.69717 1.3125 8.45801C1.3125 8.21884 1.51083 8.02051 1.75 8.02051H12.25C12.4892 8.02051 12.6875 8.21884 12.6875 8.45801C12.6875 8.69717 12.4892 8.89551 12.25 8.89551Z" fill="#5B6B79"/>
<path d="M7.27417 11.8125H1.75C1.51083 11.8125 1.3125 11.6142 1.3125 11.375C1.3125 11.1358 1.51083 10.9375 1.75 10.9375H7.27417C7.51333 10.9375 7.71167 11.1358 7.71167 11.375C7.71167 11.6142 7.51917 11.8125 7.27417 11.8125Z" fill="#5B6B79"/>
</svg>
