<svg width="14" height="14" viewBox="0 0 20 22" fill="none" xmlns="http://www.w3.org/2000/svg">
<path d="M17.5 5.7334C14.725 5.44465 11.9333 5.2959 9.15 5.2959C7.5 5.2959 5.85 5.3834 4.2 5.5584L2.5 5.7334" stroke="#FF6464" stroke-linecap="round" stroke-linejoin="round"/>
<path opacity="0.34" d="M7.08008 4.84924L7.26341 3.70299C7.39674 2.87174 7.49674 2.25049 8.90508 2.25049H11.0884C12.4967 2.25049 12.6051 2.90674 12.7301 3.71174L12.9134 4.84924" stroke="#FF6464" stroke-linecap="round" stroke-linejoin="round"/>
<path d="M15.7077 8.49805L15.166 17.3093C15.0743 18.683 14.9993 19.7505 12.6743 19.7505H7.32435C4.99935 19.7505 4.92435 18.683 4.83268 17.3093L4.29102 8.49805" stroke="#FF6464" stroke-linecap="round" stroke-linejoin="round"/>
<path opacity="0.34" d="M8.60352 14.9375H11.3785" stroke="#FF6464" stroke-linecap="round" stroke-linejoin="round"/>
<path opacity="0.34" d="M7.91992 11.438H12.0866" stroke="#FF6464" stroke-linecap="round" stroke-linejoin="round"/>
</svg>
