<svg width="18" height="18" viewBox="0 0 18 18" fill="none" xmlns="http://www.w3.org/2000/svg">
<path d="M15.7507 5.04748C15.7357 5.04748 15.7132 5.04748 15.6907 5.04748C11.7232 4.64998 7.76323 4.49998 3.84073 4.89748L2.31073 5.04748C1.99573 5.07748 1.71823 4.85248 1.68823 4.53748C1.65823 4.22248 1.88323 3.95248 2.19073 3.92248L3.72073 3.77248C7.71073 3.36748 11.7532 3.52498 15.8032 3.92248C16.1107 3.95248 16.3357 4.22998 16.3057 4.53748C16.2832 4.82998 16.0357 5.04748 15.7507 5.04748Z" fill="#353535"/>
<path d="M6.37556 4.29C6.34556 4.29 6.31556 4.29 6.27806 4.2825C5.97806 4.23 5.76806 3.9375 5.82056 3.6375L5.98556 2.655C6.10556 1.935 6.27056 0.9375 8.01806 0.9375H9.98306C11.7381 0.9375 11.9031 1.9725 12.0156 2.6625L12.1806 3.6375C12.2331 3.945 12.0231 4.2375 11.7231 4.2825C11.4156 4.335 11.1231 4.125 11.0781 3.825L10.9131 2.85C10.8081 2.1975 10.7856 2.07 9.99056 2.07H8.02556C7.23056 2.07 7.21556 2.175 7.10306 2.8425L6.93056 3.8175C6.88556 4.095 6.64556 4.29 6.37556 4.29Z" fill="#353535"/>
<path d="M11.4078 17.0625H6.59279C3.97529 17.0625 3.87029 15.615 3.78779 14.445L3.30029 6.8925C3.27779 6.585 3.51779 6.315 3.82529 6.2925C4.14029 6.2775 4.40279 6.51 4.42529 6.8175L4.91279 14.37C4.99529 15.51 5.02529 15.9375 6.59279 15.9375H11.4078C12.9828 15.9375 13.0128 15.51 13.0878 14.37L13.5753 6.8175C13.5978 6.51 13.8678 6.2775 14.1753 6.2925C14.4828 6.315 14.7228 6.5775 14.7003 6.8925L14.2128 14.445C14.1303 15.615 14.0253 17.0625 11.4078 17.0625Z" fill="#353535"/>
<path d="M10.2455 12.9375H7.74805C7.44055 12.9375 7.18555 12.6825 7.18555 12.375C7.18555 12.0675 7.44055 11.8125 7.74805 11.8125H10.2455C10.553 11.8125 10.808 12.0675 10.808 12.375C10.808 12.6825 10.553 12.9375 10.2455 12.9375Z" fill="#353535"/>
<path d="M10.875 9.9375H7.125C6.8175 9.9375 6.5625 9.6825 6.5625 9.375C6.5625 9.0675 6.8175 8.8125 7.125 8.8125H10.875C11.1825 8.8125 11.4375 9.0675 11.4375 9.375C11.4375 9.6825 11.1825 9.9375 10.875 9.9375Z" fill="#353535"/>
</svg>
