<svg width="13" height="14" viewBox="0 0 13 14" fill="none" xmlns="http://www.w3.org/2000/svg">
<path d="M4.87495 10.1138C4.65286 10.1138 4.4687 9.9296 4.4687 9.70751V7.43793L4.0787 7.82793C3.92161 7.98501 3.66161 7.98501 3.50453 7.82793C3.34745 7.67085 3.34745 7.41085 3.50453 7.25376L4.58786 6.17043C4.70161 6.05668 4.88036 6.01876 5.03203 6.08376C5.1837 6.14335 5.2812 6.29501 5.2812 6.45751V9.70751C5.2812 9.9296 5.09703 10.1138 4.87495 10.1138Z" fill="#292D32"/>
<path d="M5.9582 7.94868C5.85528 7.94868 5.75237 7.91076 5.67112 7.82951L4.58778 6.74618C4.4307 6.58909 4.4307 6.3291 4.58778 6.17201C4.74487 6.01493 5.00487 6.01493 5.16195 6.17201L6.24528 7.25535C6.40237 7.41243 6.40237 7.67243 6.24528 7.82951C6.16403 7.91076 6.06112 7.94868 5.9582 7.94868Z" fill="#292D32"/>
<path d="M8.12492 12.8229H4.87492C1.93367 12.8229 0.677002 11.5662 0.677002 8.62498V5.37498C0.677002 2.43373 1.93367 1.17706 4.87492 1.17706H7.58325C7.80533 1.17706 7.9895 1.36123 7.9895 1.58331C7.9895 1.8054 7.80533 1.98956 7.58325 1.98956H4.87492C2.37784 1.98956 1.4895 2.8779 1.4895 5.37498V8.62498C1.4895 11.1221 2.37784 12.0104 4.87492 12.0104H8.12492C10.622 12.0104 11.5103 11.1221 11.5103 8.62498V5.91665C11.5103 5.69456 11.6945 5.5104 11.9166 5.5104C12.1387 5.5104 12.3228 5.69456 12.3228 5.91665V8.62498C12.3228 11.5662 11.0662 12.8229 8.12492 12.8229Z" fill="#292D32"/>
<path d="M11.9166 6.3221H9.74992C7.89742 6.3221 7.177 5.60168 7.177 3.74918V1.58251C7.177 1.42001 7.2745 1.26835 7.42617 1.20876C7.57784 1.14376 7.75117 1.18168 7.87034 1.29543L12.2037 5.62876C12.3174 5.74251 12.3553 5.92126 12.2903 6.07293C12.2253 6.2246 12.0791 6.3221 11.9166 6.3221ZM7.9895 2.56293V3.74918C7.9895 5.14668 8.35242 5.5096 9.74992 5.5096H10.9362L7.9895 2.56293Z" fill="#292D32"/>
</svg>
