<svg width="14" height="14" viewBox="0 0 14 14" fill="none" xmlns="http://www.w3.org/2000/svg">
<path d="M7 13.2709C6.59167 13.2709 6.1775 13.1134 5.86833 12.8043L4.87082 11.8184C4.62582 11.5734 4.28751 11.4393 3.94334 11.4393H3.5C2.2925 11.4393 1.3125 10.4651 1.3125 9.26928V2.90509C1.3125 1.70926 2.2925 0.735107 3.5 0.735107H10.5C11.7075 0.735107 12.6875 1.70926 12.6875 2.90509V9.26928C12.6875 10.4651 11.7075 11.4393 10.5 11.4393H10.0567C9.71249 11.4393 9.37418 11.5793 9.12918 11.8184L8.13167 12.8043C7.8225 13.1134 7.40833 13.2709 7 13.2709ZM3.5 1.60427C2.77667 1.60427 2.1875 2.18758 2.1875 2.89925V9.26344C2.1875 9.98094 2.77667 10.5584 3.5 10.5584H3.94334C4.52084 10.5584 5.08082 10.7918 5.48915 11.1943L6.48666 12.1801C6.7725 12.4601 7.23334 12.4601 7.51918 12.1801L8.51665 11.1943C8.92499 10.7918 9.485 10.5584 10.0625 10.5584H10.5C11.2233 10.5584 11.8125 9.9751 11.8125 9.26344V2.89925C11.8125 2.18175 11.2233 1.60427 10.5 1.60427H3.5Z" fill="#1E1E1E"/>
<path d="M6.99785 6.27081C6.00618 6.27081 5.20117 5.4658 5.20117 4.47413C5.20117 3.48246 6.00618 2.67749 6.99785 2.67749C7.98952 2.67749 8.79452 3.48246 8.79452 4.47413C8.79452 5.4658 7.98952 6.27081 6.99785 6.27081ZM6.99785 3.55249C6.49035 3.55249 6.07617 3.96663 6.07617 4.47413C6.07617 4.98163 6.49035 5.39581 6.99785 5.39581C7.50535 5.39581 7.91953 4.98163 7.91953 4.47413C7.91953 3.96663 7.50535 3.55249 6.99785 3.55249Z" fill="#1E1E1E"/>
<path d="M9.33366 9.57254C9.09449 9.57254 8.89616 9.3742 8.89616 9.13504C8.89616 8.33004 8.04449 7.6709 7.00033 7.6709C5.95616 7.6709 5.10449 8.33004 5.10449 9.13504C5.10449 9.3742 4.90616 9.57254 4.66699 9.57254C4.42783 9.57254 4.22949 9.3742 4.22949 9.13504C4.22949 7.84587 5.47199 6.7959 7.00033 6.7959C8.52866 6.7959 9.77116 7.84587 9.77116 9.13504C9.77116 9.3742 9.57283 9.57254 9.33366 9.57254Z" fill="#1E1E1E"/>
</svg>
