<svg width="14" height="14" viewBox="0 0 14 14" fill="none" xmlns="http://www.w3.org/2000/svg">
<path d="M12.5765 6.26483L11.7832 5.34316C11.6315 5.16816 11.509 4.8415 11.509 4.60816V3.6165C11.509 2.99816 11.0015 2.49066 10.3832 2.49066H9.39152C9.16402 2.49066 8.83152 2.36816 8.65652 2.2165L7.73485 1.42316C7.33235 1.079 6.67318 1.079 6.26485 1.42316L5.34902 2.22233C5.17402 2.36816 4.84152 2.49066 4.61402 2.49066H3.60485C2.98652 2.49066 2.47902 2.99816 2.47902 3.6165V4.614C2.47902 4.8415 2.35652 5.16816 2.21068 5.34316L1.42318 6.27066C1.08485 6.67316 1.08485 7.3265 1.42318 7.729L2.21068 8.6565C2.35652 8.8315 2.47902 9.15816 2.47902 9.38566V10.3832C2.47902 11.0015 2.98652 11.509 3.60485 11.509H4.61402C4.84152 11.509 5.17402 11.6315 5.34902 11.7832L6.27068 12.5765C6.67318 12.9207 7.33235 12.9207 7.74068 12.5765L8.66235 11.7832C8.83735 11.6315 9.16402 11.509 9.39735 11.509H10.389C11.0073 11.509 11.5149 11.0015 11.5149 10.3832V9.3915C11.5149 9.164 11.6374 8.8315 11.789 8.6565L12.5823 7.73483C12.9207 7.33233 12.9207 6.66733 12.5765 6.26483ZM9.42652 5.89733L6.60902 8.71483C6.52735 8.7965 6.41652 8.84316 6.29985 8.84316C6.18318 8.84316 6.07235 8.7965 5.99068 8.71483L4.57902 7.30316C4.40985 7.134 4.40985 6.854 4.57902 6.68483C4.74818 6.51566 5.02818 6.51566 5.19735 6.68483L6.29985 7.78733L8.80818 5.279C8.97735 5.10983 9.25735 5.10983 9.42652 5.279C9.59568 5.44816 9.59568 5.72816 9.42652 5.89733Z" fill="#5B6B79"/>
</svg>
