<svg width="33" height="42" viewBox="0 0 33 42" fill="none" xmlns="http://www.w3.org/2000/svg">
<g clip-path="url(#clip0_461_103929)">
<path d="M31.9991 11.1444V39.7666C31.9991 40.2712 31.6107 40.6775 31.1283 40.6775H3.50845C3.02609 40.6775 2.6377 40.2712 2.6377 39.7666V2.38336C2.6377 1.8788 3.02609 1.47253 3.50845 1.47253H21.6753C21.763 1.47253 21.8444 1.5053 21.9071 1.56427L31.88 10.8691C31.9552 10.9412 31.9991 11.0395 31.9991 11.1444Z" fill="white"/>
<path d="M31.134 41.49H3.50789C2.59955 41.49 1.86035 40.7168 1.86035 39.7667V2.3834C1.86035 1.43326 2.59955 0.660034 3.50789 0.660034H21.6747C21.9504 0.660034 22.2197 0.764878 22.4265 0.961459L32.4057 10.2663C32.6437 10.4891 32.7815 10.8102 32.7815 11.1444V39.7667C32.7753 40.7168 32.0361 41.49 31.134 41.49ZM3.50789 2.28511C3.45778 2.28511 3.41393 2.33098 3.41393 2.3834V39.7667C3.41393 39.8191 3.45778 39.865 3.50789 39.865H31.134C31.1841 39.865 31.228 39.8191 31.228 39.7667V11.3475L21.5118 2.28511H3.50789Z" fill="#CFD1D4"/>
<path d="M31.9989 10.9805H22.383C22.0635 10.9805 21.8066 10.7119 21.8066 10.3777V1.47253L31.9989 10.9805Z" fill="#F5F5F5"/>
<path d="M31.9983 11.7931H22.3824C21.6369 11.7931 21.0293 11.1575 21.0293 10.3777V1.47256L22.326 0.863159L32.5183 10.3712L31.9983 11.7931ZM22.5829 10.168H29.9624L22.5829 3.28767V10.168Z" fill="#CFD1D4"/>
<path d="M19.4824 35.6451H1.64133C1.14018 35.6451 0.739258 35.2191 0.739258 34.7015V24.8462C0.739258 24.322 1.14645 23.9026 1.64133 23.9026H19.4824C19.9836 23.9026 20.3845 24.3285 20.3845 24.8462V34.7015C20.3908 35.2257 19.9836 35.6451 19.4824 35.6451Z" fill="#77C97A"/>
<path d="M18.9499 36.4575H1.43455C0.645236 36.4575 0 35.6319 0 34.6162V24.9378C0 23.9222 0.645236 23.09 1.43455 23.09H18.9499C19.7392 23.09 20.3844 23.9156 20.3844 24.9378V34.6162C20.3907 35.6319 19.7455 36.4575 18.9499 36.4575ZM1.43455 24.715C1.34059 24.715 1.26541 24.8133 1.26541 24.9313V34.6096C1.26541 34.7276 1.34059 34.8259 1.43455 34.8259H18.9499C19.0438 34.8259 19.119 34.7276 19.119 34.6096V24.9378C19.119 24.8199 19.0438 24.7216 18.9499 24.7216H1.43455V24.715Z" fill="#009607"/>
<path d="M4.29102 32.8863L5.96362 30.5208L4.36619 28.0308H5.61281L6.61512 29.5969L7.73018 28.0308H8.8891L7.25409 30.357L8.90163 32.8863H7.65501L6.60259 31.2809L5.46873 32.8863H4.29102Z" fill="white"/>
<path d="M9.59082 32.8863V25.9863H10.6996V32.8798H9.59082V32.8863Z" fill="white"/>
<path d="M13.7443 32.9912C13.3371 32.9912 12.9612 32.9322 12.623 32.8143C12.2847 32.6963 12.0091 32.5522 11.8086 32.3818L12.0905 31.5365C12.2784 31.6938 12.5227 31.8183 12.8109 31.9166C13.0991 32.0148 13.381 32.0673 13.6503 32.0673C13.9009 32.0673 14.0888 32.0214 14.2204 31.9362C14.3457 31.851 14.4146 31.7069 14.4146 31.5037V31.4185C14.4146 31.3203 14.377 31.2285 14.3018 31.163C14.2267 31.0909 14.0513 31.0123 13.7819 30.9205L13.1241 30.6977C12.955 30.6388 12.8172 30.5864 12.7044 30.5405C12.5916 30.4946 12.4789 30.4291 12.3599 30.3505C12.2408 30.2718 12.1531 30.1932 12.0905 30.1015C12.0278 30.0097 11.9715 29.8983 11.9339 29.7673C11.89 29.6362 11.8712 29.4855 11.8712 29.3151C11.8712 29.0661 11.9151 28.8499 12.0091 28.6664C12.103 28.4829 12.2283 28.3322 12.3912 28.2274C12.5541 28.1225 12.7357 28.0373 12.9362 27.9915C13.1367 27.9391 13.3559 27.9128 13.594 27.9128C13.8884 27.9128 14.1828 27.9522 14.4835 28.0308C14.7779 28.1094 15.041 28.2274 15.2603 28.3781L14.9721 29.1841C14.7905 29.0858 14.5775 29.0006 14.3332 28.9285C14.0888 28.8564 13.8696 28.8237 13.6754 28.8237C13.4186 28.8237 13.2306 28.8564 13.1179 28.922C13.0051 28.9875 12.9487 29.0989 12.9487 29.2496C12.9487 29.3479 12.9675 29.4265 13.0051 29.4855C13.0427 29.5445 13.1179 29.6034 13.2306 29.6624C13.3434 29.7214 13.5313 29.7935 13.7819 29.8852L14.3833 30.0949C14.6276 30.1801 14.8155 30.2718 14.9659 30.3767C15.1099 30.475 15.229 30.6191 15.3167 30.8091C15.4044 30.9926 15.4482 31.2285 15.4482 31.5103C15.4482 31.7265 15.4169 31.9166 15.348 32.0935C15.2791 32.2638 15.1914 32.408 15.0786 32.5194C14.9659 32.6308 14.8406 32.7225 14.6902 32.7946C14.5399 32.8667 14.3895 32.9191 14.2329 32.9453C14.0638 32.9781 13.9072 32.9912 13.7443 32.9912Z" fill="white"/>
</g>
<defs>
<clipPath id="clip0_461_103929">
<rect width="32.7755" height="40.83" fill="white" transform="translate(0 0.660034)"/>
</clipPath>
</defs>
</svg>
